<svg xmlns="http://www.w3.org/2000/svg" viewBox="0 0 150 150"><style>.st0{fill:#626261}</style><g id="Layer_1"><path class="st0" d="M10.1 77.1c-.5 0-1-.1-1.5-.1-.2 0-.4-.1-.3-.3 0-.1.2-.2.3-.3.4-.1.9-.1 1.3-.1h8.3c.3 0 .6 0 .8.1.2.1.2.4 0 .5-.2.1-.5.1-.7.1-1.4 0-6.9.1-8.2.1zM21.2 112.7c.3-.3.6-.6.9-.8 2.3-1.6 4.8-3.3 7.1-4.8l.6-.3c.1 0 .2.1.3.1v.3c-.1.2-.3.4-.5.5-2.2 1.5-4.5 3.2-6.8 4.7-.4.2-.7.4-1.1.6-.2 0-.2 0-.5-.3zM128.8 39.8c-.3.5-.7.8-1.2 1.1-2 1.3-4 2.6-6 4.1-.2.2-.5.4-.7.5l-.6.3c-.1 0-.3 0-.3-.1-.1-.1 0-.3 0-.3.2-.2.4-.4.6-.5 1.8-1.3 3.7-2.5 5.5-3.8.4-.3.8-.6 1.3-.9.3-.2.7-.4 1-.5.1-.4.3-.4.4.1zM20.6 40.5c.1-.3.3-.4.5-.3.4.2.8.4 1.1.6 2.2 1.5 4.6 3.1 6.8 4.6.3.2.5.4.7.6-.1.3-.3.4-.5.3-.2-.1-.5-.2-.7-.4-2.1-1.4-4.3-2.8-6.4-4.3-.5-.2-1-.5-1.5-1.1zM114.1 26.2c-.3.4-.5.9-.8 1.3-1.6 2-3.3 4.2-4.9 6.2-.2.2-.4.4-.6.5-.1.1-.3.1-.3 0-.1-.1-.1-.2-.1-.3l.3-.6c1.6-2.1 3.3-4.3 4.9-6.3.2-.3.5-.6.8-.9.2-.2.3-.2.7.1zM128.7 91.5c.1 0 .2.1.4.1 2.7.8 5.4 1.5 8.1 2.3l.9.3c.2.1.6.2.5.5s-.4.2-.6.2c-.4-.1-.7-.1-1.1-.2-2.6-.8-5.3-1.5-7.9-2.3-.2-.1-.4-.1-.6-.3-.1-.1-.2-.2-.2-.4 0-.1.2-.2.3-.2h.2zM12.3 95.9H12c-.1 0-.3-.1-.3-.2s.1-.3.1-.3c.3-.2.6-.4 1-.5 1.6-.5 3.3-1 5-1.5 1-.3 2.1-.6 3.2-.9.3-.1.6-.1.9-.1.1 0 .2.1.2.2s0 .2-.1.3c-.2.1-.4.3-.6.3-2.7.9-5.4 1.7-8.1 2.5-.4.1-.8.1-1 .2zM137.9 56.5h.3c.1 0 .2.1.2.2s0 .2-.1.3l-1.2.6c-1.5.5-3.1.9-4.7 1.4-1.1.3-2.2.7-3.4 1-.3.1-.5.1-.8.1-.1 0-.3-.1-.3-.2s.1-.2.2-.3l.6-.3 7.8-2.4c.5-.3.9-.3 1.4-.4zM11.8 57.3c.4.1.9.2 1.2.3 2.6.8 5.3 1.5 7.9 2.3l.6.3c.1.1.2.2.2.3-.1.1-.2.2-.3.2-.2 0-.5 0-.7-.1-2.6-.7-5.4-1.5-8-2.3-.4-.1-.7-.3-1.1-.4-.2-.1-.4-.2-.3-.4.1 0 .4 0 .5-.2zM35.2 26.8c.2-.3.4-.4.6-.2.3.3.6.5.8.8 1.7 2.1 3.4 4.3 5.1 6.4l.3.6c0 .1 0 .3-.1.3-.1.1-.3.1-.3 0-.2-.1-.4-.3-.5-.5-1.7-2-3.4-4.2-5.1-6.3-.4-.2-.6-.7-.8-1.1zM129.5 111.8c-.2.4-.3.5-.6.3l-1.2-.6c-2.2-1.5-4.5-2.9-6.7-4.5-.2-.1-.4-.3-.5-.5-.1-.1-.1-.3 0-.3 0-.1.2-.2.3-.1.3.1.5.2.8.3 1.7 1.1 3.6 2.3 5.3 3.5l1.5.9c.2.3.7.7 1.1 1zM136.2 76.2h-4.4c-.2 0-.5 0-.7-.1-.1 0-.3-.2-.3-.3 0-.1.1-.3.3-.3.3-.1.5-.1.8-.1 2.5 0 5-.1 7.5-.1H141.3c.2 0 .4.1.3.3 0 .1-.2.2-.3.3-.4.1-.8.1-1.1.1-1.3.2-2.7.2-4 .2zM34.4 58.7c-.3.3-.6.1-.9 0-1.4-.6-2.9-1.2-4.4-1.8-.6-.3-1.3-.5-1.9-.8-.3-.1-.5-.3-.7-.4-.1 0-.1-.2-.1-.3s.2-.1.2-.1c.1 0 .3 0 .4.1l.9.3c1.9.8 3.9 1.6 5.8 2.5.3.1.6.2.7.5zM127.7 66.6c-.1.1-.1.3-.2.3l-.9.3c-2.2.4-4.5.8-6.7 1.2h-.4c-.2 0-.4 0-.4-.2 0-.1.2-.2.3-.3.1-.1.2-.1.4-.1 2.1-.4 4.4-.8 6.5-1.2.4-.1.8-.1 1.4 0-.1-.1 0 0 0 0zM119.5 81c.3 0 .6-.1.8-.1 2.3.2 4.7.5 7 .7.3 0 .5.1.8.2.1 0 .2.2.4.4-.5 0-.9.1-1.2 0l-5.4-.6c-.5-.1-1.1-.1-1.6-.2-.4.2-.6.2-.8-.4zM14.9 116.6c.4-.3.7-.5 1.1-.8.6-.4.7-.4 1.1.4l-1.8 1.2c-.1.1-.7.6-1.1.3-.5-.4.5-.9.7-1.1zM27.4 61.9c.2.1.4.1.6.1 1 .3 1.9.6 2.9.9.1 0 .2 0 .3.1.1.1.2.2.1.3 0 .1-.2.2-.3.2-.1 0-.3 0-.4-.1-1-.3-1.9-.6-2.9-.8-.1 0-.3-.1-.4-.1-.1-.1-.2-.3-.3-.4.2-.1.3-.1.4-.2zM2.7 77.2H.4c-.3 0-.4-.2-.4-.5s.1-.5.4-.5h2c.2 0 .3.1.3.3.1.3 0 .4 0 .7zM6.6 97.7c-.8.2-1.5.5-2.2.7-.3.1-.5-.1-.6-.4s0-.5.3-.5l1.8-.6c.2-.1.4 0 .5.2.1.2.1.4.2.6zM143.4 54.6c.8-.2 1.5-.5 2.2-.7.3-.1.5.1.6.4.1.3 0 .5-.3.5-.5.2-1.1.3-1.7.5-.5.1-.5.1-.7-.4 0 .1 0-.1-.1-.3zM52.7 12.7c-.2.1-.3.2-.5.2-.4.1-.5.1-.6-.3-.2-.5-.4-1-.5-1.5-.1-.3 0-.5.3-.6s.6-.1.7.2c.1.6.3 1.3.6 2zM74.9 9.5c-.2 0-.4.1-.6.1-.3 0-.4-.1-.4-.4V7.5c0-.3.2-.4.5-.4.4 0 .5.1.5.4v2zM133.5 115.4c.1-.2.2-.3.3-.5.2-.2.4-.3.6-.1.5.3 1 .6 1.5 1 .3.2.4.4.2.6-.2.3-.4.4-.7.2l-.9-.6c-.4-.1-.7-.3-1-.6zM96.3 12.4c.2-.7.4-1.3.7-1.9.1-.3.3-.4.7-.3.3.1.4.3.3.6-.2.5-.3 1-.5 1.4s-.2.5-.7.3c-.2 0-.3 0-.5-.1zM116.6 21.7c.5-.7.9-1.2 1.3-1.7.2-.3.5-.3.7-.1.2.2.3.4.1.7l-.9 1.2c-.3.4-.4.4-.8.1-.2 0-.3-.1-.4-.2zM32.5 22.3c-.2.2-.3.3-.5.4s-.4.1-.6-.1c-.4-.5-.7-.9-1.1-1.4-.2-.2-.2-.4.1-.6.2-.2.5-.3.7 0 .2.1.3.3.4.5.3.2.6.7 1 1.2zM16.6 36.9c-.1.2-.2.4-.3.5-.2.2-.4.2-.6.1-.5-.3-1-.6-1.5-1-.2-.1-.3-.3-.2-.6.2-.3.4-.4.7-.2.7.4 1.3.8 1.9 1.2zM132.9 36.1l1.8-1.2c.3-.2.5-.1.7.2s.1.4-.2.6c-.4.3-.8.6-1.2.8-.7.5-.8.4-1.1-.4zM6.2 55.6c0 .2 0 .4-.1.5 0 .3-.2.4-.5.3-.5-.2-1.1-.3-1.7-.5-.4-.1-.5-.3-.4-.6s.3-.4.6-.4c.7.2 1.4.5 2.1.7zM143.8 96.8c0-.2 0-.3.1-.5.1-.3.2-.4.6-.3.6.2 1.1.3 1.7.5.4.1.4.3.4.5-.1.3-.3.5-.6.4l-1.2-.3c-.4-.1-.7-.2-1-.3zM147.3 76.2v-.9h2.3c.3 0 .4.2.4.5s-.1.5-.4.5c-.7-.1-1.5-.1-2.3-.1zM134 65.1c.3.6.3.7-.3.8-.5.1-1 .2-1.6.3-.1-.3-.1-.5-.1-.7.4-.1.7-.1 1-.2.3 0 .7-.1 1-.2zM22.5 53.3c-.2.7-.2.7-.8.5-.4-.2-.8-.3-1.1-.5-.2-.1-.3-.2-.2-.5.1-.2.2-.4.5-.3.5.3 1 .5 1.6.8zM18 86.9c-.6.1-1.2.2-1.7.3-.2 0-.4-.1-.5-.3-.1-.3.1-.4.3-.4.5-.1 1-.2 1.4-.3.5-.1.5 0 .5.7zM17.4 69.3v.4c0 .1 0 .2-.1.3-.6 0-1.2-.1-1.8-.2-.2 0-.3-.2-.3-.4s.2-.3.4-.3c.6.1 1.1.2 1.8.2zM134.9 83.3c-.8-.1-1.5-.2-2.1-.2-.2-.7-.1-.7.5-.7.3 0 .6.1.9.1.6.1.6.1.7.8zM127.5 99.1c.1-.3.2-.4.3-.7.6.2 1.1.5 1.6.7.2.1.3.3.2.5s-.3.3-.5.2c-.4-.1-1-.3-1.6-.7zM24.1 102c.1.2.3.4.4.6-.6.3-1.1.6-1.6.9-.2.1-.4 0-.5-.2s0-.4.2-.5c.4-.3.9-.5 1.5-.8zM125.6 49.7c.6-.3 1.1-.6 1.5-.8.2-.1.5-.1.6.2s0 .4-.2.5c-.5.2-1 .5-1.5.8-.1-.2-.3-.4-.4-.7z"/></g></svg>