<?xml version="1.0" encoding="utf-8"?><svg width="52000" height="1000" viewBox="0 0 52000 1000" xmlns="http://www.w3.org/2000/svg" xmlns:xlink="http://www.w3.org/1999/xlink"><view id="src-svg-allowances-data_BD002" viewBox="0 0 1000 1000"/><svg viewBox="0 0 1000 1000" width="1000" height="1000" id="src-svg-allowances-data_BD002-" xmlns="http://www.w3.org/2000/svg"><path fill="#75B537" d="M830.3 768.6c-16.9-7.1-45.5-17.4-86.4-27 22.2-57.4 39.1-127.3 42.8-210.5h135.5c-6.3 89.5-39.7 171.5-91.9 237.5zm-202 62.8c10.1-14.3 19.4-29.2 28-44.4-35.5-4.9-77-8.4-124.8-9.3v151c1.2-.1 2.3-.2 3.5-.3 14.6-10.5 54.2-41.8 93.3-97zm201.8-600.3c-16.9 7.1-45.1 17.2-85.4 26.7 22.4 57.9 39.3 128.6 42.3 213h135.4c-6.1-90.3-39.7-173.1-92.3-239.7zM675.5 869c-8.6 12-17.2 23-25.7 33 50.8-19.6 97-48.9 136.3-85.6-16.3-5.7-38.7-12.3-67.4-18.5-14.1 27.7-29 51.4-43.2 71.1zm-144-151.6c59.5 1.1 110.2 6 152.4 12.7 24.8-60.4 39-126.9 42.3-198.9H531.5v186.2zm153.2-447.9c-42.4 6.7-93.3 11.7-153.2 12.8v188.5h195.1c-2.7-73.2-16.8-140.5-41.9-201.3zM649.4 97.7c7.8 9 15.7 18.8 23.6 29.5 15.2 20.5 31.3 45.3 46.4 74.6 28.4-6.1 50.5-12.7 66.7-18.4-39.4-36.8-85.8-66.1-136.7-85.7zM532.1 71.3h-.6V222c48.1-.9 89.8-4.4 125.3-9.2-9.3-16.2-19.4-32-30.5-47.1-39-53.3-78.5-83.5-94.2-94.4zM261.1 749c-23.6-58.7-41.8-131.1-45.7-217.9H77.8c6.7 94.3 43.4 180.2 100.5 248 18.6-8.6 46.3-19.7 82.8-30.1zM77.7 470.8h137.5c3.1-88 21.3-161.2 45.2-220.4-36-10.3-63.4-21.3-81.9-29.8-57.6 68.3-94.5 155-100.8 250.2zm393.5-188.9c-58.5-2-109.1-8.6-151.7-17.1-26.4 62.1-41.2 130.9-43.9 206.1h195.7v-189zm0-210.8h-.9c-15.6 10.7-55.3 41.1-94.5 94.5-10.1 13.8-19.5 28.2-28.1 43 35.6 6.4 76.8 11.3 123.5 13V71.1zm0 460H275.8c3.9 81.2 21.4 148.7 44.5 203.6 42.4-8.5 92.8-15 150.8-16.9V531.1zm-3.8 397.6c1.3.1 2.5.2 3.8.2V778.1c-46.6 1.6-87.6 6.4-123.1 12.7 46.8 81.8 101.8 125.3 119.3 137.9zM329.1 127.2c8.3-11.1 16.6-21.3 24.7-30.7-47.9 18-91.8 44.5-129.8 77.8 16.2 6.4 37 13.7 62.4 20.5 14-26.3 28.7-48.8 42.7-67.6zM326.6 869c-13-18.2-26.7-39.6-39.8-64.5-25.8 7-46.9 14.3-63.2 20.8 38 33.3 81.9 59.9 129.8 78-8.9-10.3-17.9-21.8-26.8-34.3z"/></svg><view id="src-svg-allowances-data_BD009" viewBox="1000 0 1000 1000"/><svg viewBox="0 0 1000 1000" width="1000" height="1000" id="src-svg-allowances-data_BD009-" x="1000" xmlns="http://www.w3.org/2000/svg"><path fill="#EA5B25" d="M830.3 768.6c-16.9-7.1-45.5-17.4-86.4-27 22.2-57.4 39.1-127.3 42.8-210.5h135.5c-6.3 89.5-39.7 171.5-91.9 237.5zm-202 62.8c10.1-14.3 19.4-29.2 28-44.4-35.5-4.9-77-8.4-124.8-9.3v151c1.2-.1 2.3-.2 3.5-.3 14.6-10.5 54.2-41.8 93.3-97zm201.8-600.3c-16.9 7.1-45.1 17.2-85.4 26.7 22.4 57.9 39.3 128.6 42.3 213h135.4c-6.1-90.3-39.7-173.1-92.3-239.7zM675.5 869c-8.6 12-17.2 23-25.7 33 50.8-19.6 97-48.9 136.3-85.6-16.3-5.7-38.7-12.3-67.4-18.5-14.1 27.7-29 51.4-43.2 71.1zm-144-151.6c59.5 1.1 110.2 6 152.4 12.7 24.8-60.4 39-126.9 42.3-198.9H531.5v186.2zm153.2-447.9c-42.4 6.7-93.3 11.7-153.2 12.8v188.5h195.1c-2.7-73.2-16.8-140.5-41.9-201.3zM649.4 97.7c7.8 9 15.7 18.8 23.6 29.5 15.2 20.5 31.3 45.3 46.4 74.6 28.4-6.1 50.5-12.7 66.7-18.4-39.4-36.8-85.8-66.1-136.7-85.7zM532.1 71.3h-.6V222c48.1-.9 89.8-4.4 125.3-9.2-9.3-16.2-19.4-32-30.5-47.1-39-53.3-78.5-83.5-94.2-94.4zM261.1 749c-23.6-58.7-41.8-131.1-45.7-217.9H77.8c6.7 94.3 43.4 180.2 100.5 248 18.6-8.6 46.3-19.7 82.8-30.1zM77.7 470.8h137.5c3.1-88 21.3-161.2 45.2-220.4-36-10.3-63.4-21.3-81.9-29.8-57.6 68.3-94.5 155-100.8 250.2zm393.5-188.9c-58.5-2-109.1-8.6-151.7-17.1-26.4 62.1-41.2 130.9-43.9 206.1h195.7v-189zm0-210.8h-.9c-15.6 10.7-55.3 41.1-94.5 94.5-10.1 13.8-19.5 28.2-28.1 43 35.6 6.4 76.8 11.3 123.5 13V71.1zm0 460H275.8c3.9 81.2 21.4 148.7 44.5 203.6 42.4-8.5 92.8-15 150.8-16.9V531.1zm-3.8 397.6c1.3.1 2.5.2 3.8.2V778.1c-46.6 1.6-87.6 6.4-123.1 12.7 46.8 81.8 101.8 125.3 119.3 137.9zM329.1 127.2c8.3-11.1 16.6-21.3 24.7-30.7-47.9 18-91.8 44.5-129.8 77.8 16.2 6.4 37 13.7 62.4 20.5 14-26.3 28.7-48.8 42.7-67.6zM326.6 869c-13-18.2-26.7-39.6-39.8-64.5-25.8 7-46.9 14.3-63.2 20.8 38 33.3 81.9 59.9 129.8 78-8.9-10.3-17.9-21.8-26.8-34.3z"/></svg><view id="src-svg-allowances-data_BD010" viewBox="2000 0 1000 1000"/><svg viewBox="0 0 1000 1000" width="1000" height="1000" id="src-svg-allowances-data_BD010-" x="2000" xmlns="http://www.w3.org/2000/svg"><path fill="#EA5B25" d="M830.3 768.6c-16.9-7.1-45.5-17.4-86.4-27 22.2-57.4 39.1-127.3 42.8-210.5h135.5c-6.3 89.5-39.7 171.5-91.9 237.5zm-202 62.8c10.1-14.3 19.4-29.2 28-44.4-35.5-4.9-77-8.4-124.8-9.3v151c1.2-.1 2.3-.2 3.5-.3 14.6-10.5 54.2-41.8 93.3-97zm201.8-600.3c-16.9 7.1-45.1 17.2-85.4 26.7 22.4 57.9 39.3 128.6 42.3 213h135.4c-6.1-90.3-39.7-173.1-92.3-239.7zM675.5 869c-8.6 12-17.2 23-25.7 33 50.8-19.6 97-48.9 136.3-85.6-16.3-5.7-38.7-12.3-67.4-18.5-14.1 27.7-29 51.4-43.2 71.1zm-144-151.6c59.5 1.1 110.2 6 152.4 12.7 24.8-60.4 39-126.9 42.3-198.9H531.5v186.2zm153.2-447.9c-42.4 6.7-93.3 11.7-153.2 12.8v188.5h195.1c-2.7-73.2-16.8-140.5-41.9-201.3zM649.4 97.7c7.8 9 15.7 18.8 23.6 29.5 15.2 20.5 31.3 45.3 46.4 74.6 28.4-6.1 50.5-12.7 66.7-18.4-39.4-36.8-85.8-66.1-136.7-85.7zM532.1 71.3h-.6V222c48.1-.9 89.8-4.4 125.3-9.2-9.3-16.2-19.4-32-30.5-47.1-39-53.3-78.5-83.5-94.2-94.4zM261.1 749c-23.6-58.7-41.8-131.1-45.7-217.9H77.8c6.7 94.3 43.4 180.2 100.5 248 18.6-8.6 46.3-19.7 82.8-30.1zM77.7 470.8h137.5c3.1-88 21.3-161.2 45.2-220.4-36-10.3-63.4-21.3-81.9-29.8-57.6 68.3-94.5 155-100.8 250.2zm393.5-188.9c-58.5-2-109.1-8.6-151.7-17.1-26.4 62.1-41.2 130.9-43.9 206.1h195.7v-189zm0-210.8h-.9c-15.6 10.7-55.3 41.1-94.5 94.5-10.1 13.8-19.5 28.2-28.1 43 35.6 6.4 76.8 11.3 123.5 13V71.1zm0 460H275.8c3.9 81.2 21.4 148.7 44.5 203.6 42.4-8.5 92.8-15 150.8-16.9V531.1zm-3.8 397.6c1.3.1 2.5.2 3.8.2V778.1c-46.6 1.6-87.6 6.4-123.1 12.7 46.8 81.8 101.8 125.3 119.3 137.9zM329.1 127.2c8.3-11.1 16.6-21.3 24.7-30.7-47.9 18-91.8 44.5-129.8 77.8 16.2 6.4 37 13.7 62.4 20.5 14-26.3 28.7-48.8 42.7-67.6zM326.6 869c-13-18.2-26.7-39.6-39.8-64.5-25.8 7-46.9 14.3-63.2 20.8 38 33.3 81.9 59.9 129.8 78-8.9-10.3-17.9-21.8-26.8-34.3z"/></svg><view id="src-svg-allowances-data_BD013" viewBox="3000 0 1000 1000"/><svg viewBox="0 0 1000 1000" width="1000" height="1000" id="src-svg-allowances-data_BD013-" x="3000" xmlns="http://www.w3.org/2000/svg"><path fill="#0D734A" d="M830.3 768.6c-16.9-7.1-45.5-17.4-86.4-27 22.2-57.4 39.1-127.3 42.8-210.5h135.5c-6.3 89.5-39.7 171.5-91.9 237.5zm-202 62.8c10.1-14.3 19.4-29.2 28-44.4-35.5-4.9-77-8.4-124.8-9.3v151c1.2-.1 2.3-.2 3.5-.3 14.6-10.5 54.2-41.8 93.3-97zm201.8-600.3c-16.9 7.1-45.1 17.2-85.4 26.7 22.4 57.9 39.3 128.6 42.3 213h135.4c-6.1-90.3-39.7-173.1-92.3-239.7zM675.5 869c-8.6 12-17.2 23-25.7 33 50.8-19.6 97-48.9 136.3-85.6-16.3-5.7-38.7-12.3-67.4-18.5-14.1 27.7-29 51.4-43.2 71.1zm-144-151.6c59.5 1.1 110.2 6 152.4 12.7 24.8-60.4 39-126.9 42.3-198.9H531.5v186.2zm153.2-447.9c-42.4 6.7-93.3 11.7-153.2 12.8v188.5h195.1c-2.7-73.2-16.8-140.5-41.9-201.3zM649.4 97.7c7.8 9 15.7 18.8 23.6 29.5 15.2 20.5 31.3 45.3 46.4 74.6 28.4-6.1 50.5-12.7 66.7-18.4-39.4-36.8-85.8-66.1-136.7-85.7zM532.1 71.3h-.6V222c48.1-.9 89.8-4.4 125.3-9.2-9.3-16.2-19.4-32-30.5-47.1-39-53.3-78.5-83.5-94.2-94.4zM261.1 749c-23.6-58.7-41.8-131.1-45.7-217.9H77.8c6.7 94.3 43.4 180.2 100.5 248 18.6-8.6 46.3-19.7 82.8-30.1zM77.7 470.8h137.5c3.1-88 21.3-161.2 45.2-220.4-36-10.3-63.4-21.3-81.9-29.8-57.6 68.3-94.5 155-100.8 250.2zm393.5-188.9c-58.5-2-109.1-8.6-151.7-17.1-26.4 62.1-41.2 130.9-43.9 206.1h195.7v-189zm0-210.8h-.9c-15.6 10.7-55.3 41.1-94.5 94.5-10.1 13.8-19.5 28.2-28.1 43 35.6 6.4 76.8 11.3 123.5 13V71.1zm0 460H275.8c3.9 81.2 21.4 148.7 44.5 203.6 42.4-8.5 92.8-15 150.8-16.9V531.1zm-3.8 397.6c1.3.1 2.5.2 3.8.2V778.1c-46.6 1.6-87.6 6.4-123.1 12.7 46.8 81.8 101.8 125.3 119.3 137.9zM329.1 127.2c8.3-11.1 16.6-21.3 24.7-30.7-47.9 18-91.8 44.5-129.8 77.8 16.2 6.4 37 13.7 62.4 20.5 14-26.3 28.7-48.8 42.7-67.6zM326.6 869c-13-18.2-26.7-39.6-39.8-64.5-25.8 7-46.9 14.3-63.2 20.8 38 33.3 81.9 59.9 129.8 78-8.9-10.3-17.9-21.8-26.8-34.3z"/></svg><view id="src-svg-allowances-data_BD021" viewBox="4000 0 1000 1000"/><svg viewBox="0 0 1000 1000" width="1000" height="1000" id="src-svg-allowances-data_BD021-" x="4000" xmlns="http://www.w3.org/2000/svg"><path fill="#3EAECD" d="M830.3 768.6c-16.9-7.1-45.5-17.4-86.4-27 22.2-57.4 39.1-127.3 42.8-210.5h135.5c-6.3 89.5-39.7 171.5-91.9 237.5zm-202 62.8c10.1-14.3 19.4-29.2 28-44.4-35.5-4.9-77-8.4-124.8-9.3v151c1.2-.1 2.3-.2 3.5-.3 14.6-10.5 54.2-41.8 93.3-97zm201.8-600.3c-16.9 7.1-45.1 17.2-85.4 26.7 22.4 57.9 39.3 128.6 42.3 213h135.4c-6.1-90.3-39.7-173.1-92.3-239.7zM675.5 869c-8.6 12-17.2 23-25.7 33 50.8-19.6 97-48.9 136.3-85.6-16.3-5.7-38.7-12.3-67.4-18.5-14.1 27.7-29 51.4-43.2 71.1zm-144-151.6c59.5 1.1 110.2 6 152.4 12.7 24.8-60.4 39-126.9 42.3-198.9H531.5v186.2zm153.2-447.9c-42.4 6.7-93.3 11.7-153.2 12.8v188.5h195.1c-2.7-73.2-16.8-140.5-41.9-201.3zM649.4 97.7c7.8 9 15.7 18.8 23.6 29.5 15.2 20.5 31.3 45.3 46.4 74.6 28.4-6.1 50.5-12.7 66.7-18.4-39.4-36.8-85.8-66.1-136.7-85.7zM532.1 71.3h-.6V222c48.1-.9 89.8-4.4 125.3-9.2-9.3-16.2-19.4-32-30.5-47.1-39-53.3-78.5-83.5-94.2-94.4zM261.1 749c-23.6-58.7-41.8-131.1-45.7-217.9H77.8c6.7 94.3 43.4 180.2 100.5 248 18.6-8.6 46.3-19.7 82.8-30.1zM77.7 470.8h137.5c3.1-88 21.3-161.2 45.2-220.4-36-10.3-63.4-21.3-81.9-29.8-57.6 68.3-94.5 155-100.8 250.2zm393.5-188.9c-58.5-2-109.1-8.6-151.7-17.1-26.4 62.1-41.2 130.9-43.9 206.1h195.7v-189zm0-210.8h-.9c-15.6 10.7-55.3 41.1-94.5 94.5-10.1 13.8-19.5 28.2-28.1 43 35.6 6.4 76.8 11.3 123.5 13V71.1zm0 460H275.8c3.9 81.2 21.4 148.7 44.5 203.6 42.4-8.5 92.8-15 150.8-16.9V531.1zm-3.8 397.6c1.3.1 2.5.2 3.8.2V778.1c-46.6 1.6-87.6 6.4-123.1 12.7 46.8 81.8 101.8 125.3 119.3 137.9zM329.1 127.2c8.3-11.1 16.6-21.3 24.7-30.7-47.9 18-91.8 44.5-129.8 77.8 16.2 6.4 37 13.7 62.4 20.5 14-26.3 28.7-48.8 42.7-67.6zM326.6 869c-13-18.2-26.7-39.6-39.8-64.5-25.8 7-46.9 14.3-63.2 20.8 38 33.3 81.9 59.9 129.8 78-8.9-10.3-17.9-21.8-26.8-34.3z"/></svg><view id="src-svg-allowances-data_BD022" viewBox="5000 0 1000 1000"/><svg viewBox="0 0 1000 1000" width="1000" height="1000" id="src-svg-allowances-data_BD022-" x="5000" xmlns="http://www.w3.org/2000/svg"><path fill="#FCC41E" d="M830.3 768.6c-16.9-7.1-45.5-17.4-86.4-27 22.2-57.4 39.1-127.3 42.8-210.5h135.5c-6.3 89.5-39.7 171.5-91.9 237.5zm-202 62.8c10.1-14.3 19.4-29.2 28-44.4-35.5-4.9-77-8.4-124.8-9.3v151c1.2-.1 2.3-.2 3.5-.3 14.6-10.5 54.2-41.8 93.3-97zm201.8-600.3c-16.9 7.1-45.1 17.2-85.4 26.7 22.4 57.9 39.3 128.6 42.3 213h135.4c-6.1-90.3-39.7-173.1-92.3-239.7zM675.5 869c-8.6 12-17.2 23-25.7 33 50.8-19.6 97-48.9 136.3-85.6-16.3-5.7-38.7-12.3-67.4-18.5-14.1 27.7-29 51.4-43.2 71.1zm-144-151.6c59.5 1.1 110.2 6 152.4 12.7 24.8-60.4 39-126.9 42.3-198.9H531.5v186.2zm153.2-447.9c-42.4 6.7-93.3 11.7-153.2 12.8v188.5h195.1c-2.7-73.2-16.8-140.5-41.9-201.3zM649.4 97.7c7.8 9 15.7 18.8 23.6 29.5 15.2 20.5 31.3 45.3 46.4 74.6 28.4-6.1 50.5-12.7 66.7-18.4-39.4-36.8-85.8-66.1-136.7-85.7zM532.1 71.3h-.6V222c48.1-.9 89.8-4.4 125.3-9.2-9.3-16.2-19.4-32-30.5-47.1-39-53.3-78.5-83.5-94.2-94.4zM261.1 749c-23.6-58.7-41.8-131.1-45.7-217.9H77.8c6.7 94.3 43.4 180.2 100.5 248 18.6-8.6 46.3-19.7 82.8-30.1zM77.7 470.8h137.5c3.1-88 21.3-161.2 45.2-220.4-36-10.3-63.4-21.3-81.9-29.8-57.6 68.3-94.5 155-100.8 250.2zm393.5-188.9c-58.5-2-109.1-8.6-151.7-17.1-26.4 62.1-41.2 130.9-43.9 206.1h195.7v-189zm0-210.8h-.9c-15.6 10.7-55.3 41.1-94.5 94.5-10.1 13.8-19.5 28.2-28.1 43 35.6 6.4 76.8 11.3 123.5 13V71.1zm0 460H275.8c3.9 81.2 21.4 148.7 44.5 203.6 42.4-8.5 92.8-15 150.8-16.9V531.1zm-3.8 397.6c1.3.1 2.5.2 3.8.2V778.1c-46.6 1.6-87.6 6.4-123.1 12.7 46.8 81.8 101.8 125.3 119.3 137.9zM329.1 127.2c8.3-11.1 16.6-21.3 24.7-30.7-47.9 18-91.8 44.5-129.8 77.8 16.2 6.4 37 13.7 62.4 20.5 14-26.3 28.7-48.8 42.7-67.6zM326.6 869c-13-18.2-26.7-39.6-39.8-64.5-25.8 7-46.9 14.3-63.2 20.8 38 33.3 81.9 59.9 129.8 78-8.9-10.3-17.9-21.8-26.8-34.3z"/></svg><view id="src-svg-allowances-data_BD023" viewBox="6000 0 1000 1000"/><svg viewBox="0 0 1000 1000" width="1000" height="1000" id="src-svg-allowances-data_BD023-" x="6000" xmlns="http://www.w3.org/2000/svg"><path fill="#AE0C20" d="M830.3 768.6c-16.9-7.1-45.5-17.4-86.4-27 22.2-57.4 39.1-127.3 42.8-210.5h135.5c-6.3 89.5-39.7 171.5-91.9 237.5zm-202 62.8c10.1-14.3 19.4-29.2 28-44.4-35.5-4.9-77-8.4-124.8-9.3v151c1.2-.1 2.3-.2 3.5-.3 14.6-10.5 54.2-41.8 93.3-97zm201.8-600.3c-16.9 7.1-45.1 17.2-85.4 26.7 22.4 57.9 39.3 128.6 42.3 213h135.4c-6.1-90.3-39.7-173.1-92.3-239.7zM675.5 869c-8.6 12-17.2 23-25.7 33 50.8-19.6 97-48.9 136.3-85.6-16.3-5.7-38.7-12.3-67.4-18.5-14.1 27.7-29 51.4-43.2 71.1zm-144-151.6c59.5 1.1 110.2 6 152.4 12.7 24.8-60.4 39-126.9 42.3-198.9H531.5v186.2zm153.2-447.9c-42.4 6.7-93.3 11.7-153.2 12.8v188.5h195.1c-2.7-73.2-16.8-140.5-41.9-201.3zM649.4 97.7c7.8 9 15.7 18.8 23.6 29.5 15.2 20.5 31.3 45.3 46.4 74.6 28.4-6.1 50.5-12.7 66.7-18.4-39.4-36.8-85.8-66.1-136.7-85.7zM532.1 71.3h-.6V222c48.1-.9 89.8-4.4 125.3-9.2-9.3-16.2-19.4-32-30.5-47.1-39-53.3-78.5-83.5-94.2-94.4zM261.1 749c-23.6-58.7-41.8-131.1-45.7-217.9H77.8c6.7 94.3 43.4 180.2 100.5 248 18.6-8.6 46.3-19.7 82.8-30.1zM77.7 470.8h137.5c3.1-88 21.3-161.2 45.2-220.4-36-10.3-63.4-21.3-81.9-29.8-57.6 68.3-94.5 155-100.8 250.2zm393.5-188.9c-58.5-2-109.1-8.6-151.7-17.1-26.4 62.1-41.2 130.9-43.9 206.1h195.7v-189zm0-210.8h-.9c-15.6 10.7-55.3 41.1-94.5 94.5-10.1 13.8-19.5 28.2-28.1 43 35.6 6.4 76.8 11.3 123.5 13V71.1zm0 460H275.8c3.9 81.2 21.4 148.7 44.5 203.6 42.4-8.5 92.8-15 150.8-16.9V531.1zm-3.8 397.6c1.3.1 2.5.2 3.8.2V778.1c-46.6 1.6-87.6 6.4-123.1 12.7 46.8 81.8 101.8 125.3 119.3 137.9zM329.1 127.2c8.3-11.1 16.6-21.3 24.7-30.7-47.9 18-91.8 44.5-129.8 77.8 16.2 6.4 37 13.7 62.4 20.5 14-26.3 28.7-48.8 42.7-67.6zM326.6 869c-13-18.2-26.7-39.6-39.8-64.5-25.8 7-46.9 14.3-63.2 20.8 38 33.3 81.9 59.9 129.8 78-8.9-10.3-17.9-21.8-26.8-34.3z"/></svg><view id="src-svg-allowances-data_BD024" viewBox="7000 0 1000 1000"/><svg viewBox="0 0 1000 1000" width="1000" height="1000" id="src-svg-allowances-data_BD024-" x="7000" xmlns="http://www.w3.org/2000/svg"><path fill="#EB608F" d="M830.3 768.6c-16.9-7.1-45.5-17.4-86.4-27 22.2-57.4 39.1-127.3 42.8-210.5h135.5c-6.3 89.5-39.7 171.5-91.9 237.5zm-202 62.8c10.1-14.3 19.4-29.2 28-44.4-35.5-4.9-77-8.4-124.8-9.3v151c1.2-.1 2.3-.2 3.5-.3 14.6-10.5 54.2-41.8 93.3-97zm201.8-600.3c-16.9 7.1-45.1 17.2-85.4 26.7 22.4 57.9 39.3 128.6 42.3 213h135.4c-6.1-90.3-39.7-173.1-92.3-239.7zM675.5 869c-8.6 12-17.2 23-25.7 33 50.8-19.6 97-48.9 136.3-85.6-16.3-5.7-38.7-12.3-67.4-18.5-14.1 27.7-29 51.4-43.2 71.1zm-144-151.6c59.5 1.1 110.2 6 152.4 12.7 24.8-60.4 39-126.9 42.3-198.9H531.5v186.2zm153.2-447.9c-42.4 6.7-93.3 11.7-153.2 12.8v188.5h195.1c-2.7-73.2-16.8-140.5-41.9-201.3zM649.4 97.7c7.8 9 15.7 18.8 23.6 29.5 15.2 20.5 31.3 45.3 46.4 74.6 28.4-6.1 50.5-12.7 66.7-18.4-39.4-36.8-85.8-66.1-136.7-85.7zM532.1 71.3h-.6V222c48.1-.9 89.8-4.4 125.3-9.2-9.3-16.2-19.4-32-30.5-47.1-39-53.3-78.5-83.5-94.2-94.4zM261.1 749c-23.6-58.7-41.8-131.1-45.7-217.9H77.8c6.7 94.3 43.4 180.2 100.5 248 18.6-8.6 46.3-19.7 82.8-30.1zM77.7 470.8h137.5c3.1-88 21.3-161.2 45.2-220.4-36-10.3-63.4-21.3-81.9-29.8-57.6 68.3-94.5 155-100.8 250.2zm393.5-188.9c-58.5-2-109.1-8.6-151.7-17.1-26.4 62.1-41.2 130.9-43.9 206.1h195.7v-189zm0-210.8h-.9c-15.6 10.7-55.3 41.1-94.5 94.5-10.1 13.8-19.5 28.2-28.1 43 35.6 6.4 76.8 11.3 123.5 13V71.1zm0 460H275.8c3.9 81.2 21.4 148.7 44.5 203.6 42.4-8.5 92.8-15 150.8-16.9V531.1zm-3.8 397.6c1.3.1 2.5.2 3.8.2V778.1c-46.6 1.6-87.6 6.4-123.1 12.7 46.8 81.8 101.8 125.3 119.3 137.9zM329.1 127.2c8.3-11.1 16.6-21.3 24.7-30.7-47.9 18-91.8 44.5-129.8 77.8 16.2 6.4 37 13.7 62.4 20.5 14-26.3 28.7-48.8 42.7-67.6zM326.6 869c-13-18.2-26.7-39.6-39.8-64.5-25.8 7-46.9 14.3-63.2 20.8 38 33.3 81.9 59.9 129.8 78-8.9-10.3-17.9-21.8-26.8-34.3z"/></svg><view id="src-svg-allowances-data_BD025" viewBox="8000 0 1000 1000"/><svg viewBox="0 0 1000 1000" width="1000" height="1000" id="src-svg-allowances-data_BD025-" x="8000" xmlns="http://www.w3.org/2000/svg"><path fill="#095488" d="M830.3 768.6c-16.9-7.1-45.5-17.4-86.4-27 22.2-57.4 39.1-127.3 42.8-210.5h135.5c-6.3 89.5-39.7 171.5-91.9 237.5zm-202 62.8c10.1-14.3 19.4-29.2 28-44.4-35.5-4.9-77-8.4-124.8-9.3v151c1.2-.1 2.3-.2 3.5-.3 14.6-10.5 54.2-41.8 93.3-97zm201.8-600.3c-16.9 7.1-45.1 17.2-85.4 26.7 22.4 57.9 39.3 128.6 42.3 213h135.4c-6.1-90.3-39.7-173.1-92.3-239.7zM675.5 869c-8.6 12-17.2 23-25.7 33 50.8-19.6 97-48.9 136.3-85.6-16.3-5.7-38.7-12.3-67.4-18.5-14.1 27.7-29 51.4-43.2 71.1zm-144-151.6c59.5 1.1 110.2 6 152.4 12.7 24.8-60.4 39-126.9 42.3-198.9H531.5v186.2zm153.2-447.9c-42.4 6.7-93.3 11.7-153.2 12.8v188.5h195.1c-2.7-73.2-16.8-140.5-41.9-201.3zM649.4 97.7c7.8 9 15.7 18.8 23.6 29.5 15.2 20.5 31.3 45.3 46.4 74.6 28.4-6.1 50.5-12.7 66.7-18.4-39.4-36.8-85.8-66.1-136.7-85.7zM532.1 71.3h-.6V222c48.1-.9 89.8-4.4 125.3-9.2-9.3-16.2-19.4-32-30.5-47.1-39-53.3-78.5-83.5-94.2-94.4zM261.1 749c-23.6-58.7-41.8-131.1-45.7-217.9H77.8c6.7 94.3 43.4 180.2 100.5 248 18.6-8.6 46.3-19.7 82.8-30.1zM77.7 470.8h137.5c3.1-88 21.3-161.2 45.2-220.4-36-10.3-63.4-21.3-81.9-29.8-57.6 68.3-94.5 155-100.8 250.2zm393.5-188.9c-58.5-2-109.1-8.6-151.7-17.1-26.4 62.1-41.2 130.9-43.9 206.1h195.7v-189zm0-210.8h-.9c-15.6 10.7-55.3 41.1-94.5 94.5-10.1 13.8-19.5 28.2-28.1 43 35.6 6.4 76.8 11.3 123.5 13V71.1zm0 460H275.8c3.9 81.2 21.4 148.7 44.5 203.6 42.4-8.5 92.8-15 150.8-16.9V531.1zm-3.8 397.6c1.3.1 2.5.2 3.8.2V778.1c-46.6 1.6-87.6 6.4-123.1 12.7 46.8 81.8 101.8 125.3 119.3 137.9zM329.1 127.2c8.3-11.1 16.6-21.3 24.7-30.7-47.9 18-91.8 44.5-129.8 77.8 16.2 6.4 37 13.7 62.4 20.5 14-26.3 28.7-48.8 42.7-67.6zM326.6 869c-13-18.2-26.7-39.6-39.8-64.5-25.8 7-46.9 14.3-63.2 20.8 38 33.3 81.9 59.9 129.8 78-8.9-10.3-17.9-21.8-26.8-34.3z"/></svg><view id="src-svg-allowances-data_BD026" viewBox="9000 0 1000 1000"/><svg viewBox="0 0 1000 1000" width="1000" height="1000" id="src-svg-allowances-data_BD026-" x="9000" xmlns="http://www.w3.org/2000/svg"><path fill="#9C4CD9" d="M830.3 768.6c-16.9-7.1-45.5-17.4-86.4-27 22.2-57.4 39.1-127.3 42.8-210.5h135.5c-6.3 89.5-39.7 171.5-91.9 237.5zm-202 62.8c10.1-14.3 19.4-29.2 28-44.4-35.5-4.9-77-8.4-124.8-9.3v151c1.2-.1 2.3-.2 3.5-.3 14.6-10.5 54.2-41.8 93.3-97zm201.8-600.3c-16.9 7.1-45.1 17.2-85.4 26.7 22.4 57.9 39.3 128.6 42.3 213h135.4c-6.1-90.3-39.7-173.1-92.3-239.7zM675.5 869c-8.6 12-17.2 23-25.7 33 50.8-19.6 97-48.9 136.3-85.6-16.3-5.7-38.7-12.3-67.4-18.5-14.1 27.7-29 51.4-43.2 71.1zm-144-151.6c59.5 1.1 110.2 6 152.4 12.7 24.8-60.4 39-126.9 42.3-198.9H531.5v186.2zm153.2-447.9c-42.4 6.7-93.3 11.7-153.2 12.8v188.5h195.1c-2.7-73.2-16.8-140.5-41.9-201.3zM649.4 97.7c7.8 9 15.7 18.8 23.6 29.5 15.2 20.5 31.3 45.3 46.4 74.6 28.4-6.1 50.5-12.7 66.7-18.4-39.4-36.8-85.8-66.1-136.7-85.7zM532.1 71.3h-.6V222c48.1-.9 89.8-4.4 125.3-9.2-9.3-16.2-19.4-32-30.5-47.1-39-53.3-78.5-83.5-94.2-94.4zM261.1 749c-23.6-58.7-41.8-131.1-45.7-217.9H77.8c6.7 94.3 43.4 180.2 100.5 248 18.6-8.6 46.3-19.7 82.8-30.1zM77.7 470.8h137.5c3.1-88 21.3-161.2 45.2-220.4-36-10.3-63.4-21.3-81.9-29.8-57.6 68.3-94.5 155-100.8 250.2zm393.5-188.9c-58.5-2-109.1-8.6-151.7-17.1-26.4 62.1-41.2 130.9-43.9 206.1h195.7v-189zm0-210.8h-.9c-15.6 10.7-55.3 41.1-94.5 94.5-10.1 13.8-19.5 28.2-28.1 43 35.6 6.4 76.8 11.3 123.5 13V71.1zm0 460H275.8c3.9 81.2 21.4 148.7 44.5 203.6 42.4-8.5 92.8-15 150.8-16.9V531.1zm-3.8 397.6c1.3.1 2.5.2 3.8.2V778.1c-46.6 1.6-87.6 6.4-123.1 12.7 46.8 81.8 101.8 125.3 119.3 137.9zM329.1 127.2c8.3-11.1 16.6-21.3 24.7-30.7-47.9 18-91.8 44.5-129.8 77.8 16.2 6.4 37 13.7 62.4 20.5 14-26.3 28.7-48.8 42.7-67.6zM326.6 869c-13-18.2-26.7-39.6-39.8-64.5-25.8 7-46.9 14.3-63.2 20.8 38 33.3 81.9 59.9 129.8 78-8.9-10.3-17.9-21.8-26.8-34.3z"/></svg><view id="src-svg-allowances-data_BD027" viewBox="10000 0 1000 1000"/><svg viewBox="0 0 1000 1000" width="1000" height="1000" id="src-svg-allowances-data_BD027-" x="10000" xmlns="http://www.w3.org/2000/svg"><path fill="#095488" d="M830.3 768.6c-16.9-7.1-45.5-17.4-86.4-27 22.2-57.4 39.1-127.3 42.8-210.5h135.5c-6.3 89.5-39.7 171.5-91.9 237.5zm-202 62.8c10.1-14.3 19.4-29.2 28-44.4-35.5-4.9-77-8.4-124.8-9.3v151c1.2-.1 2.3-.2 3.5-.3 14.6-10.5 54.2-41.8 93.3-97zm201.8-600.3c-16.9 7.1-45.1 17.2-85.4 26.7 22.4 57.9 39.3 128.6 42.3 213h135.4c-6.1-90.3-39.7-173.1-92.3-239.7zM675.5 869c-8.6 12-17.2 23-25.7 33 50.8-19.6 97-48.9 136.3-85.6-16.3-5.7-38.7-12.3-67.4-18.5-14.1 27.7-29 51.4-43.2 71.1zm-144-151.6c59.5 1.1 110.2 6 152.4 12.7 24.8-60.4 39-126.9 42.3-198.9H531.5v186.2zm153.2-447.9c-42.4 6.7-93.3 11.7-153.2 12.8v188.5h195.1c-2.7-73.2-16.8-140.5-41.9-201.3zM649.4 97.7c7.8 9 15.7 18.8 23.6 29.5 15.2 20.5 31.3 45.3 46.4 74.6 28.4-6.1 50.5-12.7 66.7-18.4-39.4-36.8-85.8-66.1-136.7-85.7zM532.1 71.3h-.6V222c48.1-.9 89.8-4.4 125.3-9.2-9.3-16.2-19.4-32-30.5-47.1-39-53.3-78.5-83.5-94.2-94.4zM261.1 749c-23.6-58.7-41.8-131.1-45.7-217.9H77.8c6.7 94.3 43.4 180.2 100.5 248 18.6-8.6 46.3-19.7 82.8-30.1zM77.7 470.8h137.5c3.1-88 21.3-161.2 45.2-220.4-36-10.3-63.4-21.3-81.9-29.8-57.6 68.3-94.5 155-100.8 250.2zm393.5-188.9c-58.5-2-109.1-8.6-151.7-17.1-26.4 62.1-41.2 130.9-43.9 206.1h195.7v-189zm0-210.8h-.9c-15.6 10.7-55.3 41.1-94.5 94.5-10.1 13.8-19.5 28.2-28.1 43 35.6 6.4 76.8 11.3 123.5 13V71.1zm0 460H275.8c3.9 81.2 21.4 148.7 44.5 203.6 42.4-8.5 92.8-15 150.8-16.9V531.1zm-3.8 397.6c1.3.1 2.5.2 3.8.2V778.1c-46.6 1.6-87.6 6.4-123.1 12.7 46.8 81.8 101.8 125.3 119.3 137.9zM329.1 127.2c8.3-11.1 16.6-21.3 24.7-30.7-47.9 18-91.8 44.5-129.8 77.8 16.2 6.4 37 13.7 62.4 20.5 14-26.3 28.7-48.8 42.7-67.6zM326.6 869c-13-18.2-26.7-39.6-39.8-64.5-25.8 7-46.9 14.3-63.2 20.8 38 33.3 81.9 59.9 129.8 78-8.9-10.3-17.9-21.8-26.8-34.3z"/></svg><view id="src-svg-allowances-data_BD028" viewBox="11000 0 1000 1000"/><svg viewBox="0 0 1000 1000" width="1000" height="1000" id="src-svg-allowances-data_BD028-" x="11000" xmlns="http://www.w3.org/2000/svg"><path fill="#0D734A" d="M830.3 768.6c-16.9-7.1-45.5-17.4-86.4-27 22.2-57.4 39.1-127.3 42.8-210.5h135.5c-6.3 89.5-39.7 171.5-91.9 237.5zm-202 62.8c10.1-14.3 19.4-29.2 28-44.4-35.5-4.9-77-8.4-124.8-9.3v151c1.2-.1 2.3-.2 3.5-.3 14.6-10.5 54.2-41.8 93.3-97zm201.8-600.3c-16.9 7.1-45.1 17.2-85.4 26.7 22.4 57.9 39.3 128.6 42.3 213h135.4c-6.1-90.3-39.7-173.1-92.3-239.7zM675.5 869c-8.6 12-17.2 23-25.7 33 50.8-19.6 97-48.9 136.3-85.6-16.3-5.7-38.7-12.3-67.4-18.5-14.1 27.7-29 51.4-43.2 71.1zm-144-151.6c59.5 1.1 110.2 6 152.4 12.7 24.8-60.4 39-126.9 42.3-198.9H531.5v186.2zm153.2-447.9c-42.4 6.7-93.3 11.7-153.2 12.8v188.5h195.1c-2.7-73.2-16.8-140.5-41.9-201.3zM649.4 97.7c7.8 9 15.7 18.8 23.6 29.5 15.2 20.5 31.3 45.3 46.4 74.6 28.4-6.1 50.5-12.7 66.7-18.4-39.4-36.8-85.8-66.1-136.7-85.7zM532.1 71.3h-.6V222c48.1-.9 89.8-4.4 125.3-9.2-9.3-16.2-19.4-32-30.5-47.1-39-53.3-78.5-83.5-94.2-94.4zM261.1 749c-23.6-58.7-41.8-131.1-45.7-217.9H77.8c6.7 94.3 43.4 180.2 100.5 248 18.6-8.6 46.3-19.7 82.8-30.1zM77.7 470.8h137.5c3.1-88 21.3-161.2 45.2-220.4-36-10.3-63.4-21.3-81.9-29.8-57.6 68.3-94.5 155-100.8 250.2zm393.5-188.9c-58.5-2-109.1-8.6-151.7-17.1-26.4 62.1-41.2 130.9-43.9 206.1h195.7v-189zm0-210.8h-.9c-15.6 10.7-55.3 41.1-94.5 94.5-10.1 13.8-19.5 28.2-28.1 43 35.6 6.4 76.8 11.3 123.5 13V71.1zm0 460H275.8c3.9 81.2 21.4 148.7 44.5 203.6 42.4-8.5 92.8-15 150.8-16.9V531.1zm-3.8 397.6c1.3.1 2.5.2 3.8.2V778.1c-46.6 1.6-87.6 6.4-123.1 12.7 46.8 81.8 101.8 125.3 119.3 137.9zM329.1 127.2c8.3-11.1 16.6-21.3 24.7-30.7-47.9 18-91.8 44.5-129.8 77.8 16.2 6.4 37 13.7 62.4 20.5 14-26.3 28.7-48.8 42.7-67.6zM326.6 869c-13-18.2-26.7-39.6-39.8-64.5-25.8 7-46.9 14.3-63.2 20.8 38 33.3 81.9 59.9 129.8 78-8.9-10.3-17.9-21.8-26.8-34.3z"/></svg><view id="src-svg-allowances-data_BD029" viewBox="12000 0 1000 1000"/><svg viewBox="0 0 1000 1000" width="1000" height="1000" id="src-svg-allowances-data_BD029-" x="12000" xmlns="http://www.w3.org/2000/svg"><path fill="#FCC41E" d="M830.3 768.6c-16.9-7.1-45.5-17.4-86.4-27 22.2-57.4 39.1-127.3 42.8-210.5h135.5c-6.3 89.5-39.7 171.5-91.9 237.5zm-202 62.8c10.1-14.3 19.4-29.2 28-44.4-35.5-4.9-77-8.4-124.8-9.3v151c1.2-.1 2.3-.2 3.5-.3 14.6-10.5 54.2-41.8 93.3-97zm201.8-600.3c-16.9 7.1-45.1 17.2-85.4 26.7 22.4 57.9 39.3 128.6 42.3 213h135.4c-6.1-90.3-39.7-173.1-92.3-239.7zM675.5 869c-8.6 12-17.2 23-25.7 33 50.8-19.6 97-48.9 136.3-85.6-16.3-5.7-38.7-12.3-67.4-18.5-14.1 27.7-29 51.4-43.2 71.1zm-144-151.6c59.5 1.1 110.2 6 152.4 12.7 24.8-60.4 39-126.9 42.3-198.9H531.5v186.2zm153.2-447.9c-42.4 6.7-93.3 11.7-153.2 12.8v188.5h195.1c-2.7-73.2-16.8-140.5-41.9-201.3zM649.4 97.7c7.8 9 15.7 18.8 23.6 29.5 15.2 20.5 31.3 45.3 46.4 74.6 28.4-6.1 50.5-12.7 66.7-18.4-39.4-36.8-85.8-66.1-136.7-85.7zM532.1 71.3h-.6V222c48.1-.9 89.8-4.4 125.3-9.2-9.3-16.2-19.4-32-30.5-47.1-39-53.3-78.5-83.5-94.2-94.4zM261.1 749c-23.6-58.7-41.8-131.1-45.7-217.9H77.8c6.7 94.3 43.4 180.2 100.5 248 18.6-8.6 46.3-19.7 82.8-30.1zM77.7 470.8h137.5c3.1-88 21.3-161.2 45.2-220.4-36-10.3-63.4-21.3-81.9-29.8-57.6 68.3-94.5 155-100.8 250.2zm393.5-188.9c-58.5-2-109.1-8.6-151.7-17.1-26.4 62.1-41.2 130.9-43.9 206.1h195.7v-189zm0-210.8h-.9c-15.6 10.7-55.3 41.1-94.5 94.5-10.1 13.8-19.5 28.2-28.1 43 35.6 6.4 76.8 11.3 123.5 13V71.1zm0 460H275.8c3.9 81.2 21.4 148.7 44.5 203.6 42.4-8.5 92.8-15 150.8-16.9V531.1zm-3.8 397.6c1.3.1 2.5.2 3.8.2V778.1c-46.6 1.6-87.6 6.4-123.1 12.7 46.8 81.8 101.8 125.3 119.3 137.9zM329.1 127.2c8.3-11.1 16.6-21.3 24.7-30.7-47.9 18-91.8 44.5-129.8 77.8 16.2 6.4 37 13.7 62.4 20.5 14-26.3 28.7-48.8 42.7-67.6zM326.6 869c-13-18.2-26.7-39.6-39.8-64.5-25.8 7-46.9 14.3-63.2 20.8 38 33.3 81.9 59.9 129.8 78-8.9-10.3-17.9-21.8-26.8-34.3z"/></svg><view id="src-svg-allowances-data_BD030" viewBox="13000 0 1000 1000"/><svg viewBox="0 0 1000 1000" width="1000" height="1000" id="src-svg-allowances-data_BD030-" x="13000" xmlns="http://www.w3.org/2000/svg"><path fill="#EB608F" d="M830.3 768.6c-16.9-7.1-45.5-17.4-86.4-27 22.2-57.4 39.1-127.3 42.8-210.5h135.5c-6.3 89.5-39.7 171.5-91.9 237.5zm-202 62.8c10.1-14.3 19.4-29.2 28-44.4-35.5-4.9-77-8.4-124.8-9.3v151c1.2-.1 2.3-.2 3.5-.3 14.6-10.5 54.2-41.8 93.3-97zm201.8-600.3c-16.9 7.1-45.1 17.2-85.4 26.7 22.4 57.9 39.3 128.6 42.3 213h135.4c-6.1-90.3-39.7-173.1-92.3-239.7zM675.5 869c-8.6 12-17.2 23-25.7 33 50.8-19.6 97-48.9 136.3-85.6-16.3-5.7-38.7-12.3-67.4-18.5-14.1 27.7-29 51.4-43.2 71.1zm-144-151.6c59.5 1.1 110.2 6 152.4 12.7 24.8-60.4 39-126.9 42.3-198.9H531.5v186.2zm153.2-447.9c-42.4 6.7-93.3 11.7-153.2 12.8v188.5h195.1c-2.7-73.2-16.8-140.5-41.9-201.3zM649.4 97.7c7.8 9 15.7 18.8 23.6 29.5 15.2 20.5 31.3 45.3 46.4 74.6 28.4-6.1 50.5-12.7 66.7-18.4-39.4-36.8-85.8-66.1-136.7-85.7zM532.1 71.3h-.6V222c48.1-.9 89.8-4.4 125.3-9.2-9.3-16.2-19.4-32-30.5-47.1-39-53.3-78.5-83.5-94.2-94.4zM261.1 749c-23.6-58.7-41.8-131.1-45.7-217.9H77.8c6.7 94.3 43.4 180.2 100.5 248 18.6-8.6 46.3-19.7 82.8-30.1zM77.7 470.8h137.5c3.1-88 21.3-161.2 45.2-220.4-36-10.3-63.4-21.3-81.9-29.8-57.6 68.3-94.5 155-100.8 250.2zm393.5-188.9c-58.5-2-109.1-8.6-151.7-17.1-26.4 62.1-41.2 130.9-43.9 206.1h195.7v-189zm0-210.8h-.9c-15.6 10.7-55.3 41.1-94.5 94.5-10.1 13.8-19.5 28.2-28.1 43 35.6 6.4 76.8 11.3 123.5 13V71.1zm0 460H275.8c3.9 81.2 21.4 148.7 44.5 203.6 42.4-8.5 92.8-15 150.8-16.9V531.1zm-3.8 397.6c1.3.1 2.5.2 3.8.2V778.1c-46.6 1.6-87.6 6.4-123.1 12.7 46.8 81.8 101.8 125.3 119.3 137.9zM329.1 127.2c8.3-11.1 16.6-21.3 24.7-30.7-47.9 18-91.8 44.5-129.8 77.8 16.2 6.4 37 13.7 62.4 20.5 14-26.3 28.7-48.8 42.7-67.6zM326.6 869c-13-18.2-26.7-39.6-39.8-64.5-25.8 7-46.9 14.3-63.2 20.8 38 33.3 81.9 59.9 129.8 78-8.9-10.3-17.9-21.8-26.8-34.3z"/></svg><view id="src-svg-allowances-data_BD031" viewBox="14000 0 1000 1000"/><svg viewBox="0 0 1000 1000" width="1000" height="1000" id="src-svg-allowances-data_BD031-" x="14000" xmlns="http://www.w3.org/2000/svg"><path fill="#DF4E1B" d="M830.3 768.6c-16.9-7.1-45.5-17.4-86.4-27 22.2-57.4 39.1-127.3 42.8-210.5h135.5c-6.3 89.5-39.7 171.5-91.9 237.5zm-202 62.8c10.1-14.3 19.4-29.2 28-44.4-35.5-4.9-77-8.4-124.8-9.3v151c1.2-.1 2.3-.2 3.5-.3 14.6-10.5 54.2-41.8 93.3-97zm201.8-600.3c-16.9 7.1-45.1 17.2-85.4 26.7 22.4 57.9 39.3 128.6 42.3 213h135.4c-6.1-90.3-39.7-173.1-92.3-239.7zM675.5 869c-8.6 12-17.2 23-25.7 33 50.8-19.6 97-48.9 136.3-85.6-16.3-5.7-38.7-12.3-67.4-18.5-14.1 27.7-29 51.4-43.2 71.1zm-144-151.6c59.5 1.1 110.2 6 152.4 12.7 24.8-60.4 39-126.9 42.3-198.9H531.5v186.2zm153.2-447.9c-42.4 6.7-93.3 11.7-153.2 12.8v188.5h195.1c-2.7-73.2-16.8-140.5-41.9-201.3zM649.4 97.7c7.8 9 15.7 18.8 23.6 29.5 15.2 20.5 31.3 45.3 46.4 74.6 28.4-6.1 50.5-12.7 66.7-18.4-39.4-36.8-85.8-66.1-136.7-85.7zM532.1 71.3h-.6V222c48.1-.9 89.8-4.4 125.3-9.2-9.3-16.2-19.4-32-30.5-47.1-39-53.3-78.5-83.5-94.2-94.4zM261.1 749c-23.6-58.7-41.8-131.1-45.7-217.9H77.8c6.7 94.3 43.4 180.2 100.5 248 18.6-8.6 46.3-19.7 82.8-30.1zM77.7 470.8h137.5c3.1-88 21.3-161.2 45.2-220.4-36-10.3-63.4-21.3-81.9-29.8-57.6 68.3-94.5 155-100.8 250.2zm393.5-188.9c-58.5-2-109.1-8.6-151.7-17.1-26.4 62.1-41.2 130.9-43.9 206.1h195.7v-189zm0-210.8h-.9c-15.6 10.7-55.3 41.1-94.5 94.5-10.1 13.8-19.5 28.2-28.1 43 35.6 6.4 76.8 11.3 123.5 13V71.1zm0 460H275.8c3.9 81.2 21.4 148.7 44.5 203.6 42.4-8.5 92.8-15 150.8-16.9V531.1zm-3.8 397.6c1.3.1 2.5.2 3.8.2V778.1c-46.6 1.6-87.6 6.4-123.1 12.7 46.8 81.8 101.8 125.3 119.3 137.9zM329.1 127.2c8.3-11.1 16.6-21.3 24.7-30.7-47.9 18-91.8 44.5-129.8 77.8 16.2 6.4 37 13.7 62.4 20.5 14-26.3 28.7-48.8 42.7-67.6zM326.6 869c-13-18.2-26.7-39.6-39.8-64.5-25.8 7-46.9 14.3-63.2 20.8 38 33.3 81.9 59.9 129.8 78-8.9-10.3-17.9-21.8-26.8-34.3z"/></svg><view id="src-svg-allowances-data_black" viewBox="15000 0 1000 1000"/><svg viewBox="0 0 1000 1000" width="1000" height="1000" id="src-svg-allowances-data_black-" x="15000" xmlns="http://www.w3.org/2000/svg"><path d="M830.3 768.6c-16.9-7.1-45.5-17.4-86.4-27 22.2-57.4 39.1-127.3 42.8-210.5h135.5c-6.3 89.5-39.7 171.5-91.9 237.5zm-202 62.8c10.1-14.3 19.4-29.2 28-44.4-35.5-4.9-77-8.4-124.8-9.3v151c1.2-.1 2.3-.2 3.5-.3 14.6-10.5 54.2-41.8 93.3-97zm201.8-600.3c-16.9 7.1-45.1 17.2-85.4 26.7 22.4 57.9 39.3 128.6 42.3 213h135.4c-6.1-90.3-39.7-173.1-92.3-239.7zM675.5 869c-8.6 12-17.2 23-25.7 33 50.8-19.6 97-48.9 136.3-85.6-16.3-5.7-38.7-12.3-67.4-18.5-14.1 27.7-29 51.4-43.2 71.1zm-144-151.6c59.5 1.1 110.2 6 152.4 12.7 24.8-60.4 39-126.9 42.3-198.9H531.5v186.2zm153.2-447.9c-42.4 6.7-93.3 11.7-153.2 12.8v188.5h195.1c-2.7-73.2-16.8-140.5-41.9-201.3zM649.4 97.7c7.8 9 15.7 18.8 23.6 29.5 15.2 20.5 31.3 45.3 46.4 74.6 28.4-6.1 50.5-12.7 66.7-18.4-39.4-36.8-85.8-66.1-136.7-85.7zM532.1 71.3h-.6V222c48.1-.9 89.8-4.4 125.3-9.2-9.3-16.2-19.4-32-30.5-47.1-39-53.3-78.5-83.5-94.2-94.4zM261.1 749c-23.6-58.7-41.8-131.1-45.7-217.9H77.8c6.7 94.3 43.4 180.2 100.5 248 18.6-8.6 46.3-19.7 82.8-30.1zM77.7 470.8h137.5c3.1-88 21.3-161.2 45.2-220.4-36-10.3-63.4-21.3-81.9-29.8-57.6 68.3-94.5 155-100.8 250.2zm393.5-188.9c-58.5-2-109.1-8.6-151.7-17.1-26.4 62.1-41.2 130.9-43.9 206.1h195.7v-189zm0-210.8h-.9c-15.6 10.7-55.3 41.1-94.5 94.5-10.1 13.8-19.5 28.2-28.1 43 35.6 6.4 76.8 11.3 123.5 13V71.1zm0 460H275.8c3.9 81.2 21.4 148.7 44.5 203.6 42.4-8.5 92.8-15 150.8-16.9V531.1zm-3.8 397.6c1.3.1 2.5.2 3.8.2V778.1c-46.6 1.6-87.6 6.4-123.1 12.7 46.8 81.8 101.8 125.3 119.3 137.9zM329.1 127.2c8.3-11.1 16.6-21.3 24.7-30.7-47.9 18-91.8 44.5-129.8 77.8 16.2 6.4 37 13.7 62.4 20.5 14-26.3 28.7-48.8 42.7-67.6zM326.6 869c-13-18.2-26.7-39.6-39.8-64.5-25.8 7-46.9 14.3-63.2 20.8 38 33.3 81.9 59.9 129.8 78-8.9-10.3-17.9-21.8-26.8-34.3z"/></svg><view id="src-svg-allowances-minutes_BD002" viewBox="16000 0 1000 1000"/><svg viewBox="0 0 1000 1000" width="1000" height="1000" id="src-svg-allowances-minutes_BD002-" x="16000" xmlns="http://www.w3.org/2000/svg"><path fill="#75B537" d="M890.3 805.9c-4.5 17.8-12.6 34.4-24.7 48.9-12.9 15.5-29.7 25.8-47.3 34.8-32.2 16.6-66 25.9-100.7 26.2C588.9 917 422.8 837.3 293 684.1 116.5 475.5 74.5 220.9 199.2 115.3c5.6-4.8 12-11 24-18 16.2-9.6 33.9-14.9 52.2-16.5L447.8 373c-4.4 6.6-9.5 15.6-13.5 20.1-30.8 34.4-78.6 43.8-121.5 42.6 0 0-15 25.3 94.2 154.3 91.3 112.3 139.1 120.3 139.1 120.3 6-42.1 22.9-87.6 61.9-111.9 5-3.1 14.4-6.3 21.4-9.5l260.9 217z"/></svg><view id="src-svg-allowances-minutes_BD009" viewBox="17000 0 1000 1000"/><svg viewBox="0 0 1000 1000" width="1000" height="1000" id="src-svg-allowances-minutes_BD009-" x="17000" xmlns="http://www.w3.org/2000/svg"><path fill="#EA5B25" d="M890.3 805.9c-4.5 17.8-12.6 34.4-24.7 48.9-12.9 15.5-29.7 25.8-47.3 34.8-32.2 16.6-66 25.9-100.7 26.2C588.9 917 422.8 837.3 293 684.1 116.5 475.5 74.5 220.9 199.2 115.3c5.6-4.8 12-11 24-18 16.2-9.6 33.9-14.9 52.2-16.5L447.8 373c-4.4 6.6-9.5 15.6-13.5 20.1-30.8 34.4-78.6 43.8-121.5 42.6 0 0-15 25.3 94.2 154.3 91.3 112.3 139.1 120.3 139.1 120.3 6-42.1 22.9-87.6 61.9-111.9 5-3.1 14.4-6.3 21.4-9.5l260.9 217z"/></svg><view id="src-svg-allowances-minutes_BD010" viewBox="18000 0 1000 1000"/><svg viewBox="0 0 1000 1000" width="1000" height="1000" id="src-svg-allowances-minutes_BD010-" x="18000" xmlns="http://www.w3.org/2000/svg"><path fill="#EA5B25" d="M890.3 805.9c-4.5 17.8-12.6 34.4-24.7 48.9-12.9 15.5-29.7 25.8-47.3 34.8-32.2 16.6-66 25.9-100.7 26.2C588.9 917 422.8 837.3 293 684.1 116.5 475.5 74.5 220.9 199.2 115.3c5.6-4.8 12-11 24-18 16.2-9.6 33.9-14.9 52.2-16.5L447.8 373c-4.4 6.6-9.5 15.6-13.5 20.1-30.8 34.4-78.6 43.8-121.5 42.6 0 0-15 25.3 94.2 154.3 91.3 112.3 139.1 120.3 139.1 120.3 6-42.1 22.9-87.6 61.9-111.9 5-3.1 14.4-6.3 21.4-9.5l260.9 217z"/></svg><view id="src-svg-allowances-minutes_BD013" viewBox="19000 0 1000 1000"/><svg viewBox="0 0 1000 1000" width="1000" height="1000" id="src-svg-allowances-minutes_BD013-" x="19000" xmlns="http://www.w3.org/2000/svg"><path fill="#0D734A" d="M890.3 805.9c-4.5 17.8-12.6 34.4-24.7 48.9-12.9 15.5-29.7 25.8-47.3 34.8-32.2 16.6-66 25.9-100.7 26.2C588.9 917 422.8 837.3 293 684.1 116.5 475.5 74.5 220.9 199.2 115.3c5.6-4.8 12-11 24-18 16.2-9.6 33.9-14.9 52.2-16.5L447.8 373c-4.4 6.6-9.5 15.6-13.5 20.1-30.8 34.4-78.6 43.8-121.5 42.6 0 0-15 25.3 94.2 154.3 91.3 112.3 139.1 120.3 139.1 120.3 6-42.1 22.9-87.6 61.9-111.9 5-3.1 14.4-6.3 21.4-9.5l260.9 217z"/></svg><view id="src-svg-allowances-minutes_BD021" viewBox="20000 0 1000 1000"/><svg viewBox="0 0 1000 1000" width="1000" height="1000" id="src-svg-allowances-minutes_BD021-" x="20000" xmlns="http://www.w3.org/2000/svg"><path fill="#3EAECD" d="M890.3 805.9c-4.5 17.8-12.6 34.4-24.7 48.9-12.9 15.5-29.7 25.8-47.3 34.8-32.2 16.6-66 25.9-100.7 26.2C588.9 917 422.8 837.3 293 684.1 116.5 475.5 74.5 220.9 199.2 115.3c5.6-4.8 12-11 24-18 16.2-9.6 33.9-14.9 52.2-16.5L447.8 373c-4.4 6.6-9.5 15.6-13.5 20.1-30.8 34.4-78.6 43.8-121.5 42.6 0 0-15 25.3 94.2 154.3 91.3 112.3 139.1 120.3 139.1 120.3 6-42.1 22.9-87.6 61.9-111.9 5-3.1 14.4-6.3 21.4-9.5l260.9 217z"/></svg><view id="src-svg-allowances-minutes_BD022" viewBox="21000 0 1000 1000"/><svg viewBox="0 0 1000 1000" width="1000" height="1000" id="src-svg-allowances-minutes_BD022-" x="21000" xmlns="http://www.w3.org/2000/svg"><path fill="#FCC41E" d="M890.3 805.9c-4.5 17.8-12.6 34.4-24.7 48.9-12.9 15.5-29.7 25.8-47.3 34.8-32.2 16.6-66 25.9-100.7 26.2C588.9 917 422.8 837.3 293 684.1 116.5 475.5 74.5 220.9 199.2 115.3c5.6-4.8 12-11 24-18 16.2-9.6 33.9-14.9 52.2-16.5L447.8 373c-4.4 6.6-9.5 15.6-13.5 20.1-30.8 34.4-78.6 43.8-121.5 42.6 0 0-15 25.3 94.2 154.3 91.3 112.3 139.1 120.3 139.1 120.3 6-42.1 22.9-87.6 61.9-111.9 5-3.1 14.4-6.3 21.4-9.5l260.9 217z"/></svg><view id="src-svg-allowances-minutes_BD023" viewBox="22000 0 1000 1000"/><svg viewBox="0 0 1000 1000" width="1000" height="1000" id="src-svg-allowances-minutes_BD023-" x="22000" xmlns="http://www.w3.org/2000/svg"><path fill="#AE0C20" d="M890.3 805.9c-4.5 17.8-12.6 34.4-24.7 48.9-12.9 15.5-29.7 25.8-47.3 34.8-32.2 16.6-66 25.9-100.7 26.2C588.9 917 422.8 837.3 293 684.1 116.5 475.5 74.5 220.9 199.2 115.3c5.6-4.8 12-11 24-18 16.2-9.6 33.9-14.9 52.2-16.5L447.8 373c-4.4 6.6-9.5 15.6-13.5 20.1-30.8 34.4-78.6 43.8-121.5 42.6 0 0-15 25.3 94.2 154.3 91.3 112.3 139.1 120.3 139.1 120.3 6-42.1 22.9-87.6 61.9-111.9 5-3.1 14.4-6.3 21.4-9.5l260.9 217z"/></svg><view id="src-svg-allowances-minutes_BD024" viewBox="23000 0 1000 1000"/><svg viewBox="0 0 1000 1000" width="1000" height="1000" id="src-svg-allowances-minutes_BD024-" x="23000" xmlns="http://www.w3.org/2000/svg"><path fill="#EB608F" d="M890.3 805.9c-4.5 17.8-12.6 34.4-24.7 48.9-12.9 15.5-29.7 25.8-47.3 34.8-32.2 16.6-66 25.9-100.7 26.2C588.9 917 422.8 837.3 293 684.1 116.5 475.5 74.5 220.9 199.2 115.3c5.6-4.8 12-11 24-18 16.2-9.6 33.9-14.9 52.2-16.5L447.8 373c-4.4 6.6-9.5 15.6-13.5 20.1-30.8 34.4-78.6 43.8-121.5 42.6 0 0-15 25.3 94.2 154.3 91.3 112.3 139.1 120.3 139.1 120.3 6-42.1 22.9-87.6 61.9-111.9 5-3.1 14.4-6.3 21.4-9.5l260.9 217z"/></svg><view id="src-svg-allowances-minutes_BD025" viewBox="24000 0 1000 1000"/><svg viewBox="0 0 1000 1000" width="1000" height="1000" id="src-svg-allowances-minutes_BD025-" x="24000" xmlns="http://www.w3.org/2000/svg"><path fill="#095488" d="M890.3 805.9c-4.5 17.8-12.6 34.4-24.7 48.9-12.9 15.5-29.7 25.8-47.3 34.8-32.2 16.6-66 25.9-100.7 26.2C588.9 917 422.8 837.3 293 684.1 116.5 475.5 74.5 220.9 199.2 115.3c5.6-4.8 12-11 24-18 16.2-9.6 33.9-14.9 52.2-16.5L447.8 373c-4.4 6.6-9.5 15.6-13.5 20.1-30.8 34.4-78.6 43.8-121.5 42.6 0 0-15 25.3 94.2 154.3 91.3 112.3 139.1 120.3 139.1 120.3 6-42.1 22.9-87.6 61.9-111.9 5-3.1 14.4-6.3 21.4-9.5l260.9 217z"/></svg><view id="src-svg-allowances-minutes_BD026" viewBox="25000 0 1000 1000"/><svg viewBox="0 0 1000 1000" width="1000" height="1000" id="src-svg-allowances-minutes_BD026-" x="25000" xmlns="http://www.w3.org/2000/svg"><path fill="#9C4CD9" d="M890.3 805.9c-4.5 17.8-12.6 34.4-24.7 48.9-12.9 15.5-29.7 25.8-47.3 34.8-32.2 16.6-66 25.9-100.7 26.2C588.9 917 422.8 837.3 293 684.1 116.5 475.5 74.5 220.9 199.2 115.3c5.6-4.8 12-11 24-18 16.2-9.6 33.9-14.9 52.2-16.5L447.8 373c-4.4 6.6-9.5 15.6-13.5 20.1-30.8 34.4-78.6 43.8-121.5 42.6 0 0-15 25.3 94.2 154.3 91.3 112.3 139.1 120.3 139.1 120.3 6-42.1 22.9-87.6 61.9-111.9 5-3.1 14.4-6.3 21.4-9.5l260.9 217z"/></svg><view id="src-svg-allowances-minutes_BD027" viewBox="26000 0 1000 1000"/><svg viewBox="0 0 1000 1000" width="1000" height="1000" id="src-svg-allowances-minutes_BD027-" x="26000" xmlns="http://www.w3.org/2000/svg"><path fill="#095488" d="M890.3 805.9c-4.5 17.8-12.6 34.4-24.7 48.9-12.9 15.5-29.7 25.8-47.3 34.8-32.2 16.6-66 25.9-100.7 26.2C588.9 917 422.8 837.3 293 684.1 116.5 475.5 74.5 220.9 199.2 115.3c5.6-4.8 12-11 24-18 16.2-9.6 33.9-14.9 52.2-16.5L447.8 373c-4.4 6.6-9.5 15.6-13.5 20.1-30.8 34.4-78.6 43.8-121.5 42.6 0 0-15 25.3 94.2 154.3 91.3 112.3 139.1 120.3 139.1 120.3 6-42.1 22.9-87.6 61.9-111.9 5-3.1 14.4-6.3 21.4-9.5l260.9 217z"/></svg><view id="src-svg-allowances-minutes_BD028" viewBox="27000 0 1000 1000"/><svg viewBox="0 0 1000 1000" width="1000" height="1000" id="src-svg-allowances-minutes_BD028-" x="27000" xmlns="http://www.w3.org/2000/svg"><path fill="#0D734A" d="M890.3 805.9c-4.5 17.8-12.6 34.4-24.7 48.9-12.9 15.5-29.7 25.8-47.3 34.8-32.2 16.6-66 25.9-100.7 26.2C588.9 917 422.8 837.3 293 684.1 116.5 475.5 74.5 220.9 199.2 115.3c5.6-4.8 12-11 24-18 16.2-9.6 33.9-14.9 52.2-16.5L447.8 373c-4.4 6.6-9.5 15.6-13.5 20.1-30.8 34.4-78.6 43.8-121.5 42.6 0 0-15 25.3 94.2 154.3 91.3 112.3 139.1 120.3 139.1 120.3 6-42.1 22.9-87.6 61.9-111.9 5-3.1 14.4-6.3 21.4-9.5l260.9 217z"/></svg><view id="src-svg-allowances-minutes_BD029" viewBox="28000 0 1000 1000"/><svg viewBox="0 0 1000 1000" width="1000" height="1000" id="src-svg-allowances-minutes_BD029-" x="28000" xmlns="http://www.w3.org/2000/svg"><path fill="#FCC41E" d="M890.3 805.9c-4.5 17.8-12.6 34.4-24.7 48.9-12.9 15.5-29.7 25.8-47.3 34.8-32.2 16.6-66 25.9-100.7 26.2C588.9 917 422.8 837.3 293 684.1 116.5 475.5 74.5 220.9 199.2 115.3c5.6-4.8 12-11 24-18 16.2-9.6 33.9-14.9 52.2-16.5L447.8 373c-4.4 6.6-9.5 15.6-13.5 20.1-30.8 34.4-78.6 43.8-121.5 42.6 0 0-15 25.3 94.2 154.3 91.3 112.3 139.1 120.3 139.1 120.3 6-42.1 22.9-87.6 61.9-111.9 5-3.1 14.4-6.3 21.4-9.5l260.9 217z"/></svg><view id="src-svg-allowances-minutes_BD030" viewBox="29000 0 1000 1000"/><svg viewBox="0 0 1000 1000" width="1000" height="1000" id="src-svg-allowances-minutes_BD030-" x="29000" xmlns="http://www.w3.org/2000/svg"><path fill="#EB608F" d="M890.3 805.9c-4.5 17.8-12.6 34.4-24.7 48.9-12.9 15.5-29.7 25.8-47.3 34.8-32.2 16.6-66 25.9-100.7 26.2C588.9 917 422.8 837.3 293 684.1 116.5 475.5 74.5 220.9 199.2 115.3c5.6-4.8 12-11 24-18 16.2-9.6 33.9-14.9 52.2-16.5L447.8 373c-4.4 6.6-9.5 15.6-13.5 20.1-30.8 34.4-78.6 43.8-121.5 42.6 0 0-15 25.3 94.2 154.3 91.3 112.3 139.1 120.3 139.1 120.3 6-42.1 22.9-87.6 61.9-111.9 5-3.1 14.4-6.3 21.4-9.5l260.9 217z"/></svg><view id="src-svg-allowances-minutes_BD031" viewBox="30000 0 1000 1000"/><svg viewBox="0 0 1000 1000" width="1000" height="1000" id="src-svg-allowances-minutes_BD031-" x="30000" xmlns="http://www.w3.org/2000/svg"><path fill="#DF4E1B" d="M890.3 805.9c-4.5 17.8-12.6 34.4-24.7 48.9-12.9 15.5-29.7 25.8-47.3 34.8-32.2 16.6-66 25.9-100.7 26.2C588.9 917 422.8 837.3 293 684.1 116.5 475.5 74.5 220.9 199.2 115.3c5.6-4.8 12-11 24-18 16.2-9.6 33.9-14.9 52.2-16.5L447.8 373c-4.4 6.6-9.5 15.6-13.5 20.1-30.8 34.4-78.6 43.8-121.5 42.6 0 0-15 25.3 94.2 154.3 91.3 112.3 139.1 120.3 139.1 120.3 6-42.1 22.9-87.6 61.9-111.9 5-3.1 14.4-6.3 21.4-9.5l260.9 217z"/></svg><view id="src-svg-allowances-minutes_black" viewBox="31000 0 1000 1000"/><svg viewBox="0 0 1000 1000" width="1000" height="1000" id="src-svg-allowances-minutes_black-" x="31000" xmlns="http://www.w3.org/2000/svg"><path d="M890.3 805.9c-4.5 17.8-12.6 34.4-24.7 48.9-12.9 15.5-29.7 25.8-47.3 34.8-32.2 16.6-66 25.9-100.7 26.2C588.9 917 422.8 837.3 293 684.1 116.5 475.5 74.5 220.9 199.2 115.3c5.6-4.8 12-11 24-18 16.2-9.6 33.9-14.9 52.2-16.5L447.8 373c-4.4 6.6-9.5 15.6-13.5 20.1-30.8 34.4-78.6 43.8-121.5 42.6 0 0-15 25.3 94.2 154.3 91.3 112.3 139.1 120.3 139.1 120.3 6-42.1 22.9-87.6 61.9-111.9 5-3.1 14.4-6.3 21.4-9.5l260.9 217z"/></svg><view id="src-svg-allowances-reserve_tank_BD002" viewBox="32000 0 1000 1000"/><svg id="src-svg-allowances-reserve_tank_BD002-" viewBox="0 0 1000 1000" width="1000" height="1000" x="32000" xmlns="http://www.w3.org/2000/svg"><style>.bgst0{fill:#73b62b}</style><path class="bgst0" d="M674.9 245.9C673.8 150.2 596.2 72.1 500 72.1s-173.8 77.5-174.9 173.8H214.3v683.9h571.4V245.9H674.9zM499.4 132.7c63 0 113.7 50.1 114.9 113.1H384.6c1.1-62.3 51.8-113.1 114.8-113.1zm50.2 388.4v254.2h-99.1V521.1h-67.1l116.6-151 116.6 151h-67z"/></svg><view id="src-svg-allowances-reserve_tank_BD021" viewBox="33000 0 1000 1000"/><svg id="src-svg-allowances-reserve_tank_BD021-" viewBox="0 0 1000 1000" width="1000" height="1000" x="33000" xmlns="http://www.w3.org/2000/svg"><style>.bhst0{fill:#36adce}</style><path class="bhst0" d="M674.9 245.9C673.8 150.2 596.2 72.1 500 72.1s-173.8 77.5-174.9 173.8H214.3v683.9h571.4V245.9H674.9zM499.4 132.7c63 0 113.7 50.1 114.9 113.1H384.6c1.1-62.3 51.8-113.1 114.8-113.1zm50.2 388.4v254.2h-99.1V521.1h-67.1l116.6-151 116.6 151h-67z"/></svg><view id="src-svg-allowances-reserve_tank_BD022" viewBox="34000 0 1000 1000"/><svg id="src-svg-allowances-reserve_tank_BD022-" viewBox="0 0 1000 1000" width="1000" height="1000" x="34000" xmlns="http://www.w3.org/2000/svg"><style>.bist0{fill:#fcc41e}</style><path class="bist0" d="M674.9 245.9C673.8 150.2 596.2 72.1 500 72.1s-173.8 77.5-174.9 173.8H214.3v683.9h571.4V245.9H674.9zM499.4 132.7c63 0 113.7 50.1 114.9 113.1H384.6c1.1-62.3 51.8-113.1 114.8-113.1zm50.2 388.4v254.2h-99.1V521.1h-67.1l116.6-151 116.6 151h-67z"/></svg><view id="src-svg-allowances-reserve_tank_BD023" viewBox="35000 0 1000 1000"/><svg id="src-svg-allowances-reserve_tank_BD023-" viewBox="0 0 1000 1000" width="1000" height="1000" x="35000" xmlns="http://www.w3.org/2000/svg"><style>.bjst0{fill:#ae0c20}</style><path class="bjst0" d="M674.9 245.9C673.8 150.2 596.2 72.1 500 72.1s-173.8 77.5-174.9 173.8H214.3v683.9h571.4V245.9H674.9zM499.4 132.7c63 0 113.7 50.1 114.9 113.1H384.6c1.1-62.3 51.8-113.1 114.8-113.1zm50.2 388.4v254.2h-99.1V521.1h-67.1l116.6-151 116.6 151h-67z"/></svg><view id="src-svg-allowances-texts_BD002" viewBox="36000 0 1000 1000"/><svg viewBox="0 0 1000 1000" width="1000" height="1000" id="src-svg-allowances-texts_BD002-" x="36000" xmlns="http://www.w3.org/2000/svg"><path fill="#75B537" d="M101.3 133v488.4h332.4L672 866.8V621.4h224.1V133z"/></svg><view id="src-svg-allowances-texts_BD009" viewBox="37000 0 1000 1000"/><svg viewBox="0 0 1000 1000" width="1000" height="1000" id="src-svg-allowances-texts_BD009-" x="37000" xmlns="http://www.w3.org/2000/svg"><path fill="#EA5B25" d="M101.3 133v488.4h332.4L672 866.8V621.4h224.1V133z"/></svg><view id="src-svg-allowances-texts_BD010" viewBox="38000 0 1000 1000"/><svg viewBox="0 0 1000 1000" width="1000" height="1000" id="src-svg-allowances-texts_BD010-" x="38000" xmlns="http://www.w3.org/2000/svg"><path fill="#EA5B25" d="M101.3 133v488.4h332.4L672 866.8V621.4h224.1V133z"/></svg><view id="src-svg-allowances-texts_BD013" viewBox="39000 0 1000 1000"/><svg viewBox="0 0 1000 1000" width="1000" height="1000" id="src-svg-allowances-texts_BD013-" x="39000" xmlns="http://www.w3.org/2000/svg"><path fill="#0D734A" d="M101.3 133v488.4h332.4L672 866.8V621.4h224.1V133z"/></svg><view id="src-svg-allowances-texts_BD021" viewBox="40000 0 1000 1000"/><svg viewBox="0 0 1000 1000" width="1000" height="1000" id="src-svg-allowances-texts_BD021-" x="40000" xmlns="http://www.w3.org/2000/svg"><path fill="#3EAECD" d="M101.3 133v488.4h332.4L672 866.8V621.4h224.1V133z"/></svg><view id="src-svg-allowances-texts_BD022" viewBox="41000 0 1000 1000"/><svg viewBox="0 0 1000 1000" width="1000" height="1000" id="src-svg-allowances-texts_BD022-" x="41000" xmlns="http://www.w3.org/2000/svg"><path fill="#FCC41E" d="M101.3 133v488.4h332.4L672 866.8V621.4h224.1V133z"/></svg><view id="src-svg-allowances-texts_BD023" viewBox="42000 0 1000 1000"/><svg viewBox="0 0 1000 1000" width="1000" height="1000" id="src-svg-allowances-texts_BD023-" x="42000" xmlns="http://www.w3.org/2000/svg"><path fill="#AE0C20" d="M101.3 133v488.4h332.4L672 866.8V621.4h224.1V133z"/></svg><view id="src-svg-allowances-texts_BD024" viewBox="43000 0 1000 1000"/><svg viewBox="0 0 1000 1000" width="1000" height="1000" id="src-svg-allowances-texts_BD024-" x="43000" xmlns="http://www.w3.org/2000/svg"><path fill="#EB608F" d="M101.3 133v488.4h332.4L672 866.8V621.4h224.1V133z"/></svg><view id="src-svg-allowances-texts_BD025" viewBox="44000 0 1000 1000"/><svg viewBox="0 0 1000 1000" width="1000" height="1000" id="src-svg-allowances-texts_BD025-" x="44000" xmlns="http://www.w3.org/2000/svg"><path fill="#095488" d="M101.3 133v488.4h332.4L672 866.8V621.4h224.1V133z"/></svg><view id="src-svg-allowances-texts_BD026" viewBox="45000 0 1000 1000"/><svg viewBox="0 0 1000 1000" width="1000" height="1000" id="src-svg-allowances-texts_BD026-" x="45000" xmlns="http://www.w3.org/2000/svg"><path fill="#9C4CD9" d="M101.3 133v488.4h332.4L672 866.8V621.4h224.1V133z"/></svg><view id="src-svg-allowances-texts_BD027" viewBox="46000 0 1000 1000"/><svg viewBox="0 0 1000 1000" width="1000" height="1000" id="src-svg-allowances-texts_BD027-" x="46000" xmlns="http://www.w3.org/2000/svg"><path fill="#095488" d="M101.3 133v488.4h332.4L672 866.8V621.4h224.1V133z"/></svg><view id="src-svg-allowances-texts_BD028" viewBox="47000 0 1000 1000"/><svg viewBox="0 0 1000 1000" width="1000" height="1000" id="src-svg-allowances-texts_BD028-" x="47000" xmlns="http://www.w3.org/2000/svg"><path fill="#0D734A" d="M101.3 133v488.4h332.4L672 866.8V621.4h224.1V133z"/></svg><view id="src-svg-allowances-texts_BD029" viewBox="48000 0 1000 1000"/><svg viewBox="0 0 1000 1000" width="1000" height="1000" id="src-svg-allowances-texts_BD029-" x="48000" xmlns="http://www.w3.org/2000/svg"><path fill="#FCC41E" d="M101.3 133v488.4h332.4L672 866.8V621.4h224.1V133z"/></svg><view id="src-svg-allowances-texts_BD030" viewBox="49000 0 1000 1000"/><svg viewBox="0 0 1000 1000" width="1000" height="1000" id="src-svg-allowances-texts_BD030-" x="49000" xmlns="http://www.w3.org/2000/svg"><path fill="#EB608F" d="M101.3 133v488.4h332.4L672 866.8V621.4h224.1V133z"/></svg><view id="src-svg-allowances-texts_BD031" viewBox="50000 0 1000 1000"/><svg viewBox="0 0 1000 1000" width="1000" height="1000" id="src-svg-allowances-texts_BD031-" x="50000" xmlns="http://www.w3.org/2000/svg"><path fill="#DF4E1B" d="M101.3 133v488.4h332.4L672 866.8V621.4h224.1V133z"/></svg><view id="src-svg-allowances-texts_black" viewBox="51000 0 1000 1000"/><svg viewBox="0 0 1000 1000" width="1000" height="1000" id="src-svg-allowances-texts_black-" x="51000" xmlns="http://www.w3.org/2000/svg"><path d="M101.3 133v488.4h332.4L672 866.8V621.4h224.1V133z"/></svg></svg>