<?xml version="1.0" encoding="utf-8"?><!DOCTYPE svg PUBLIC "-//W3C//DTD SVG 1.1//EN" "http://www.w3.org/Graphics/SVG/1.1/DTD/svg11.dtd"><svg width="18000" height="1000" viewBox="0 0 18000 1000" xmlns="http://www.w3.org/2000/svg" xmlns:xlink="http://www.w3.org/1999/xlink"><view id="src-svg-spread-email" viewBox="0 0 1000 1000"/><svg id="src-svg-spread-email-" viewBox="0 0 1000 1000" width="1000" height="1000" xmlns="http://www.w3.org/2000/svg"><style>.ast0{fill:#36adce}</style><path class="ast0" d="M303.4 410.9l115.3-115.3 80.9 80.9 80.9-80.9L696 410.9 516.7 590.2l403.9-193.9-361.4-220.9c-59.5-33.8-59.5-33.8-115.1 0L78.8 396.2l403.9 193.9-179.3-179.2z"/><path d="M499.7 655.7L78.8 440.8V808c0 22.2 18.2 40.4 40.4 40.4h761c22.2 0 40.4-18.2 40.4-40.4V440.8L499.7 655.7z"/></svg><view id="src-svg-spread-facebook" viewBox="1000 0 1000 1000"/><svg id="src-svg-spread-facebook-" viewBox="0 0 1000 1000" width="1000" height="1000" x="1000" xmlns="http://www.w3.org/2000/svg"><style>.bst0{fill:#3b5998}</style><path class="bst0" d="M499 65.9c-239 0-432.8 193.8-432.8 432.8S260 931.6 499 931.6s432.8-193.8 432.8-432.8S738 65.9 499 65.9zm159.8 232.5h-56.4c-8.4 0-16.7 0-25.1 2.1-12.5 4.2-23 12.5-25.1 25.1 0 4.2-2.1 12.5-2.1 18.8v73.1c0 2.1 0 2.1 2.1 2.1h104.5c0 2.1-10.4 96.1-12.5 108.6 0 2.1-2.1 2.1-2.1 2.1H552.2c-2.1 0-2.1 0-2.1 2.1V804h-117V528.2c0-2.1 0-2.1-2.1-2.1h-89.8V417.5H431c2.1 0 2.1 0 2.1-2.1v-73.1c0-10.4 0-20.9 2.1-31.3 2.1-12.5 4.2-23 8.4-35.5 12.5-29.3 31.3-50.1 58.5-64.8C523 200.2 546 196 568.9 196c14.6 0 85.7 4.2 89.8 4.2.1 33.4.1 64.7.1 98.2z"/></svg><view id="src-svg-spread-filter" viewBox="2000 0 1000 1000"/><svg viewBox="0 0 1000 1000" width="1000" height="1000" id="src-svg-spread-filter-" x="2000" xmlns="http://www.w3.org/2000/svg"><path d="M774 182.5c-61.2-26.1-169.4-47.8-292.8-47.8-131.1 0-245.2 19.6-303.8 47.8-26.7 12.9-52.7 37-33.6 60.9l281.7 413.4v241l111.2-70v-171l281.7-413.4c13.8-21.4-11-46.6-44.4-60.9zM479.8 287.8c-137.2 0-268.5-33.1-268.5-61.5s131.3-61.5 268.5-61.5 268.5 33.1 268.5 61.5c0 28.5-131.2 61.5-268.5 61.5z"/></svg><view id="src-svg-spread-free-calls" viewBox="3000 0 1000 1000"/><svg id="src-svg-spread-free-calls-" viewBox="0 0 1000 1000" width="1000" height="1000" x="3000" xmlns="http://www.w3.org/2000/svg"><style>.dst0{fill:#ea5b25}</style><path d="M873.7 168H647.3c-22.4 0-40.7 18.3-40.7 40.7v404.4c0 22.4 18.3 40.7 40.7 40.7h226.4c22.4 0 40.7-18.3 40.7-40.7V208.7c.1-22.4-18.3-40.7-40.7-40.7M760.5 625.1c-15.8 0-28.7-12.8-28.7-28.7s12.8-28.7 28.7-28.7c15.8 0 28.7 12.8 28.7 28.7s-12.8 28.7-28.7 28.7m99.2-86.8h-199V225h199.1v313.3z"/><path d="M760.2 447.5l-82.9-82.9 48.7-48.7 34.2 34.2 34.2-34.2 48.7 48.7-82.9 82.9z"/><path class="dst0" d="M918.2 389.9l58.4 75.1c4.5 5.7 6.9 12.8 6.9 20.1l.4 210.2h-59.2c-17.8 0-26.2-9.1-33-16.2-12.9-13.4-39.7-41.5-44.2-46.6-7-7.9-13.1-16.6-13.1-33.8V475.5c0-10.9 8.8-19.7 19.8-19.7 10.9 0 19.7 8.8 19.7 19.7v86.9l44.2-47.4V389.9"/><path d="M983.9 701.6h-59.2c-20.2 0-30-10.3-37.1-17.7-13-13.5-40.1-41.9-44.8-47.2-7.1-7.9-14.7-18.1-14.7-38V475.5c0-14.4 11.7-26.1 26.1-26.1 14.4 0 26 11.7 26 26.1v70.9l31.6-33.9V389.9l11.3-3.9 58.4 75.1c5.3 6.8 8.2 15.3 8.3 23.9l.4 210.2-6.3 6.4zM854.2 462.1c-7.4 0-13.4 6-13.4 13.4v123.1c0 15.5 5.4 22.9 11.5 29.6 4.5 5 31.3 33.1 44.1 46.5 6.9 7.2 13.6 14.3 28.4 14.3h52.9l-.4-203.9c0-5.8-2-11.6-5.6-16.2l-47.1-60.5V515l-1.7 4.3-44.2 47.4-10.9-4.3v-86.9c-.2-7.4-6.2-13.4-13.6-13.4zm64 52.9z"/><g><path d="M389.7 287.1h-226c-22.4 0-40.7 18.3-40.7 40.7v403.8c0 22.4 18.3 40.7 40.7 40.7h226.1c22.4 0 40.7-18.3 40.7-40.7V327.8c-.1-22.4-18.4-40.7-40.8-40.7m-113 456.5c-15.8 0-28.6-12.8-28.6-28.6s12.8-28.6 28.6-28.6 28.6 12.8 28.6 28.6-12.8 28.6-28.6 28.6m99-86.7H177V344.1h198.8v312.8z"/><path class="dst0" d="M462.7 430.8c48.9 48.9 48.9 128.2 0 177.1l31.5 31.5c66.3-66.3 66.3-173.8 0-240.2l-31.5 31.6z"/><path class="dst0" d="M522.9 370.6c82.1 82.1 82.1 215.3 0 297.4l33.2 33.2c100.5-100.5 100.5-263.4 0-363.9l-33.2 33.3z"/><path d="M276.3 566.2l-82.8-82.8 48.6-48.6 34.1 34.1 34.1-34.1 48.6 48.6-82.6 82.8z"/><path class="dst0" d="M269.9 677.2c-4.5-4.5-10.6-6.8-16.8-6.8-6.2 0-12.5 2.3-17.3 7.1l-5.6 5.6-.3-.4 15.8-15.8c9.4-9.5 9.4-25 .3-34.1-4.5-4.5-10.6-6.8-16.8-6.8-6.2 0-12.5 2.3-17.3 7.1L203 642l-.4-.6L223 621c9.4-9.5 9.4-25 .3-34.1-4.5-4.5-10.6-6.8-16.8-6.8-6.2 0-12.5 2.3-17.3 7.1l-13.5 13.5-.7-1.1 76.4-76.4c9.4-9.5 9.4-25 .3-34.1-4.5-4.5-10.6-6.8-16.8-6.8-6.2 0-12.5 2.3-17.3 7.1L62 645v-81.7c-.1-12.6-10.3-22.8-22.9-22.8-12.6 0-22.8 10.2-22.9 22.8v166.1l78.2 78.4c10.8 10.8 24.9 16.2 39 16.2 14.1 0 28.3-5.4 39-16.2l97.1-96.6c9.5-9.4 9.5-24.9.4-34z"/><path d="M133.5 830c-16.3 0-31.7-6.4-43.2-17.9L12 733.6c-1.1-1.1-1.7-2.6-1.7-4.2V563.3c.1-15.9 13-28.7 28.9-28.7 15.8 0 28.8 12.9 28.9 28.7v67.4L213.6 485c5.7-5.7 13.3-8.8 21.5-8.8 8.1 0 15.5 3 21 8.6 5.4 5.4 8.6 13.1 8.5 21.1 0 8.1-3.2 15.7-8.8 21.4l-46.9 46.9c7.2.5 13.8 3.5 18.7 8.5 9.9 9.9 11.1 25.8 3.7 37.5 7.2.5 13.9 3.5 18.9 8.5 5.4 5.4 8.6 13.1 8.5 21.1 0 5.3-1.4 10.4-3.9 14.8 7.3.4 14.1 3.4 19.2 8.5 5.5 5.5 8.6 13.1 8.5 21.1 0 8.1-3.2 15.7-8.8 21.4l-97.1 96.6c-11.4 11.4-26.8 17.8-43.1 17.8zM22.2 727l76.5 76.7c9.3 9.3 21.6 14.4 34.8 14.4 13.2 0 25.5-5.1 34.8-14.4l97.1-96.6c3.4-3.4 5.3-8 5.3-13 0-4.8-1.8-9.4-5-12.6-6.6-6.6-18.9-6.5-25.6.3l-5.6 5.6c-1.3 1.3-3 1.9-4.8 1.7-1.8-.2-3.4-1.1-4.4-2.6-1.6-2.4-1.5-5.9.5-7.9l15.8-15.8c3.4-3.4 5.3-8 5.3-13 0-4.8-1.8-9.4-5-12.6-6.6-6.6-18.9-6.5-25.6.3l-8.9 8.9c-1.3 1.3-3.1 1.8-4.8 1.7-1.8-.2-3.4-1.2-4.4-2.7l-.4-.6c-1.5-2.4-1.2-5.5.8-7.5l20.4-20.4c7-7 7.2-18.8.3-25.6-6.6-6.6-18.9-6.5-25.6.3l-13.5 13.5c-1.3 1.3-3 1.9-4.8 1.7-1.8-.2-3.4-1.2-4.4-2.7l-.7-1.1c-1.5-2.4-1.2-5.5.8-7.5l76.4-76.4c3.4-3.4 5.3-8 5.3-13 0-4.8-1.8-9.4-5.1-12.6-6.6-6.6-18.9-6.5-25.6.3L66.2 649.3c-1.7 1.7-4.3 2.2-6.5 1.3-2.2-.9-3.7-3.1-3.7-5.5v-81.7c-.1-9.2-7.6-16.8-16.9-16.8-9.3 0-16.9 7.5-16.9 16.8V727z"/></g></svg><view id="src-svg-spread-get-5-both" viewBox="4000 0 1000 1000"/><svg id="src-svg-spread-get-5-both-" viewBox="0 0 1000 1000" width="1000" height="1000" x="4000" xmlns="http://www.w3.org/2000/svg"><style>.est0{fill:#ea5b25}</style><path d="M411.1 391.5c-2.6 2.7-6 3.5-10.1 3.5h-66v39.6c0 8.8-2.4 16.6-5.7 23.4-3.3 6.8-8.1 13.8-13.8 19.7 9.8-2.3 19.2-2.7 28.9-2.7h82.2s-.1-.4-.1-.3c27.7-77.4 89.1-139.3 166.4-167.3C561.5 202.1 463.8 125 348.5 125 207.8 125 93.4 239.4 93.4 380c0 140.7 114.4 255 255.1 255 23.7 0 46.6-3.3 68.3-9.4-4.1-19-6.4-37.5-6.4-57.7 0-17.5 1.7-35 4.8-50H249v-33.3c4-1.1 8.8-2.6 12.9-4.5s7.7-4.4 10.8-7.4c3.1-3 6.6-6.5 8.5-10.6 1.9-4.1 3.8-8.8 3.8-14.3v-53h-40V380c0-4.5 1.4-8.7 4.2-12 2.8-3.3 6.9-5.2 12.3-5.2H285v-46.4c0-12.5.9-24.4 4.6-35.6 3.7-11.2 8.9-21.1 16.4-29.5 7.6-8.4 16.8-15.1 28.3-20 11.4-4.9 24.7-7.4 40.1-7.4 10.6 0 20.1 1.4 28.5 4.1 8.4 2.7 15.9 6.4 22.5 11.1 6.6 4.7 12.3 10.1 17.1 16.4 4.8 6.3 9 13.1 12.4 20.4l-19.7 12.6c-4.3 2.1-8 3.2-11.4 3.2-4.9 0-9.3-2.2-13.2-6.6-2.5-2.9-5-5.6-7.5-8.1s-5.1-4.6-8-6.3c-2.9-1.7-6-3-9.4-4-3.4-.9-7.3-1.4-11.7-1.4-13.7 0-23.2 4.5-29.9 13.5-6.8 9-9.4 21.4-9.4 37.4V363h80v20.2c.3 3.2-1 5.6-3.6 8.3z"/><path d="M652.7 292C512 292 397.6 406.4 397.6 547.1S512 802.2 652.7 802.2s255.1-114.4 255.1-255.1S793.4 292 652.7 292zM767 661.6c0 2.4-1.2 4.9-2.2 7.4-1 2.5-2.8 4.8-4.7 6.9-1.9 2.1-4.3 2.4-6.9 3.6-2.6 1.3-5.7.5-8.9.5H554v-28.2c1-1.1 8.4-2.6 12.6-4.5 4.1-1.9 7.5-4.4 10.7-7.4 3.1-3 5.4-6.5 7.2-10.6 1.9-4.1 2.5-8.8 2.5-14.3v-54h-35v-13.6c0-4.5 0-7.3 2.8-10.6s5.5-3.8 11-3.8H587v-49.2c0-12.5 2-24.4 5.7-35.6 3.7-11.2 9.4-21.1 17-29.5 7.6-8.4 17.1-15.1 28.6-20 11.4-4.9 24.9-7.4 40.3-7.4 10.6 0 20.2 1.4 28.6 4.1 8.4 2.7 16 6.4 22.5 11.1 6.6 4.7 12.3 10.1 17.1 16.4 4.8 6.3 9 13.1 12.5 20.4l-19.7 12.6c-4.3 2.1-8 3.2-11.4 3.2-4.9 0-9.3-2.2-13.2-6.6-2.5-2.9-5-5.6-7.5-8.1s-5.1-4.6-8-6.3c-2.9-1.7-6-3-9.4-4-3.4-.9-7.3-1.4-11.7-1.4-13.7 0-22.8 4.5-29.6 13.5-6.8 9-9 21.4-9 37.4V533h82v17.3c0 3.2-2.7 5.1-5.3 7.7-2.6 2.7-7.3 2.9-11.4 2.9H640v40.8c0 8.8-2.8 16.6-6 23.4-3.3 6.8-8.3 13.3-14 19.1 9.8-2.3 19-3.3 28.7-3.3H767v20.7z"/><path class="est0" d="M893 459.2l77.4 99.5c5.9 7.6 9.2 17 9.2 26.6l.6 278.8h-78.5c-23.6 0-34.7-12.1-43.7-21.5-17.1-17.8-52.6-55.1-58.7-61.8C790 770.4 782 758.7 782 736V572.7c0-14.5 11.7-26.2 26.2-26.2s26.2 11.7 26.2 26.2V688l58.7-62.9V459.2"/><path d="M980.2 872.5h-78.5c-26.7 0-39.7-13.6-49.2-23.5-17.2-17.9-53.1-55.6-59.4-62.6-9.4-10.5-19.5-24-19.5-50.4V572.7c0-19.1 15.5-34.6 34.6-34.6 19 0 34.5 15.5 34.5 34.6v94l41.9-45V459.2l15-5.1 77.4 99.5c7 9 10.9 20.3 11 31.8l.6 278.8-8.4 8.3zm-172-317.6c-9.8 0-17.8 8-17.8 17.8V736c0 20.6 7.2 30.3 15.2 39.3 5.9 6.6 41.5 43.9 58.5 61.6 9.2 9.6 18.1 18.9 37.7 18.9h70.1l-.6-270.4c0-7.8-2.7-15.4-7.4-21.5l-62.4-80.3v141.5l-2.2 5.7-58.7 62.9L826 688V572.7c0-9.8-8-17.8-17.8-17.8zm84.8 70.2z"/><g><path class="est0" d="M108.2 292v166l58.7 62.9V405.6c0-14.5 11.7-26.2 26.2-26.2s26.2 11.7 26.2 26.2v163.2c0 22.8-8 34.4-17.3 44.9-6 6.7-41.6 44.1-58.7 61.8-9 9.4-20.1 21.5-43.7 21.5H21l.6-278.8c0-9.7 3.3-19 9.2-26.6l77.4-99.6"/><path d="M99.5 705.4H21l-8.4-8.4.6-278.8c0-11.5 3.9-22.8 11-31.8l77.4-99.5 15 5.1v162.6l41.9 45v-94c0-19.1 15.5-34.6 34.5-34.6 19.1 0 34.6 15.5 34.6 34.6v163.2c0 26.5-10 39.9-19.5 50.5-6.3 7-42.2 44.7-58.9 62-9.9 10.5-22.9 24.1-49.7 24.1zm-70.1-16.7h70.1c19.6 0 28.5-9.3 37.1-18.4 17.6-18.3 53.1-55.6 59-62.2 8-8.9 15.2-18.7 15.2-39.3V405.6c0-9.8-8-17.8-17.8-17.8s-17.8 8-17.8 17.8v115.3l-14.5 5.7-58.7-62.9-2.2-5.7V316.4l-62.4 80.3c-4.8 6.1-7.4 13.8-7.4 21.5l-.6 270.5z"/></g></svg><view id="src-svg-spread-googleplus" viewBox="5000 0 1000 1000"/><svg id="src-svg-spread-googleplus-" viewBox="0 0 1000 1000" width="1000" height="1000" x="5000" xmlns="http://www.w3.org/2000/svg"><style>.fst0{fill:#ea5b25}</style><path class="fst0" d="M499 65.9c-239 0-432.8 193.8-432.8 432.8S260 931.6 499 931.6s432.8-193.8 432.8-432.8S738 65.9 499 65.9zm33.1 566c-50.6 64-141.3 82.6-215.9 56-74.6-26.7-130.6-106.6-128-189.3-5.3-104 85.3-197.3 186.6-199.9 53.3-5.3 104 16 143.9 48-16 18.7-32 34.7-50.6 53.3-34.7-21.3-77.3-37.3-117.3-21.3-66.6 18.7-106.6 96-82.6 159.9 21.3 66.6 101.3 104 165.3 74.6 32-10.7 56-42.7 64-74.6H382.9V472h189.3c2.6 55.9-5.4 114.6-40.1 159.9zM756 525.3v56h-56v-56h-56v-56h56v-56h56v56h56v56h-56z"/></svg><view id="src-svg-spread-great-value-gb" viewBox="6000 0 1000 1000"/><svg id="src-svg-spread-great-value-gb-" viewBox="0 0 1000 1000" width="1000" height="1000" x="6000" xmlns="http://www.w3.org/2000/svg"><style>.gst0{fill:#ea5b25}</style><path class="gst0" d="M764.2 664.2c1.4 2 2.1 4.8 2.1 8.6 0 3.7-.7 6.6-2.1 8.5-1.4 1.9-3.5 2.9-6.4 2.9-2.9 0-5.1-1-6.5-2.9-1.4-2-2.1-4.8-2.1-8.5s.7-6.6 2.1-8.5c1.4-2 3.6-3 6.5-3 2.9-.1 5 .9 6.4 2.9zm31.7-3.1c-1.3 0-2.4.2-3.4.7-1 .5-1.9 1.2-2.6 2.1-.7 1-1.3 2.2-1.6 3.7-.4 1.5-.6 3.2-.6 5.2s.2 3.7.5 5.2c.3 1.4.8 2.6 1.4 3.4.6.9 1.3 1.5 2.2 1.9.9.4 1.9.6 2.9.6 1.7 0 2.4-.4 3.6-1.1 1.2-.7 2.7-1.7 2.7-3.1v-15.6c0-1.1-1.2-2-2.3-2.4-1.1-.4-1.5-.6-2.8-.6zM673.4 692c0 .6.2 1.2.5 1.7s.8 1 1.5 1.4c.7.4 1.5.7 2.6.9 1.1.2 2.4.3 3.9.3 1.6 0 2.9-.1 4-.4 1.1-.2 2.1-.6 2.8-1 .7-.4 1.3-.9 1.6-1.5.3-.6.5-1.2.5-1.9s-.2-1.2-.6-1.7c-.4-.4-1-.8-1.7-1-.7-.2-1.5-2-2.5-2.1-.9-.1-1.9-1.7-3-1.7h-3.2c-1.1 0-2.2 1.4-3.2 1.2-.9.5-1.7 1.9-2.3 2.6-.6.7-.9 2.3-.9 3.2zm204.1-28.1c-.6-.9-1.3-1.5-2.2-1.9-.9-.4-1.8-.6-3-.6-1.7 0-3.4.4-4.7 1.1-1.2.7-3.7 1.8-3.7 3.1v15.6c0 1.2 2.2 2 3.3 2.5 1.1.5 2.4.7 3.7.7 1.3 0 2.5-.2 3.5-.7 1-.5 1.9-1.2 2.6-2.2.7-1 1.3-2.2 1.7-3.7.4-1.5.6-3.2.6-5.2s-.2-3.7-.5-5.2c-.2-1.5-.7-2.6-1.3-3.5zm-195.9-3.3c-2.1 0-3.6.5-4.6 1.5-1 1-1.5 2.4-1.5 4.1 0 .8.1 1.6.4 2.3.3.7.6 1.3 1.1 1.8.5.5 1.1.9 1.9 1.2.8.3 1.7.4 2.7.4 1 0 1.9-.1 2.7-.4.8-.3 1.4-.7 1.9-1.2s.9-1.1 1.1-1.8c.3-.7.4-1.5.4-2.3 0-1.7-.5-3.1-1.5-4.1-1-1-2.6-1.5-4.6-1.5zm37.8.6c-2.9 0-5.1 1-6.5 3-1.4 2-2.1 4.8-2.1 8.5s.7 6.6 2.1 8.5c1.4 1.9 3.6 2.9 6.5 2.9s5-1 6.4-2.9c1.4-1.9 2.1-4.8 2.1-8.5 0-3.8-.7-6.6-2.1-8.6-1.4-1.9-3.6-2.9-6.4-2.9zM933.8 692c0 .6.1 1.2.5 1.7.3.5.8 1 1.4 1.4.7.4 1.5.7 2.6.9 1.1.2 2.4.3 3.9.3 1.6 0 2.9-.1 4-.4 1.1-.2 2.1-.6 2.8-1 .7-.4 1.3-.9 1.6-1.5.3-.6.5-1.2.5-1.9s-.2-1.2-.6-1.7c-.4-.4-.9-.8-1.6-1-.7-.2-1.5-2-2.5-2.1-.9-.1-1.9-1.7-3-1.7h-3.2c-1.1 0-2.2 1.4-3.2 1.2-1 .5-1.7 1.9-2.3 2.6-.7.7-.9 2.3-.9 3.2zm-30.3-15c-1 .5-1.7 1-2.1 1.7-.4.6-.6 1.3-.6 2.1 0 1.5.4 2.5 1.3 3.2.9.6 2 1 3.4 1 .9 0 1.6-.1 2.4-.2.7-.2 1.4-.4 2-.7.6-.3.5-.7 1.1-1.1.6-.5 1-1 1-1.6v-5.8s-3.7.2-5.3.5c-1.7 0-2.2.4-3.2.9zm38.4-16.4c-2 0-3.6.5-4.6 1.5-1 1-1.5 2.4-1.5 4.1 0 .8.1 1.6.4 2.3.3.7.6 1.3 1.1 1.8.5.5 1.1.9 1.9 1.2.8.3 1.7.4 2.7.4 1 0 1.9-.1 2.7-.4.8-.3 1.4-.7 1.9-1.2s.9-1.1 1.1-1.8c.3-.7.4-1.5.4-2.3 0-1.7-.5-3.1-1.5-4.1-1-1-2.5-1.5-4.6-1.5zM981 349v399H648V349h62.8c.7-52 46.1-100.7 102-100.7S914.1 297 914.8 349H981zm-235.3 0h134.1c-.7-34-30.4-65.8-67.1-65.8-36.6 0-66.3 31.8-67 65.8zM776 520v24.9c0 3 .3 5.7-.8 8-1 2.3-2.1 4.2-3.8 5.9-1.7 1.7-3.3 3-5.6 4.1-2.3 1.1-2.8 1.9-6.8 2.5V581h106.3c1.8 0 3.6.4 5-.3s2.9-.7 3.9-1.9c1-1.1 3.9-2.5 4.5-3.9.6-1.4 3.3-2.8 3.3-4.2V560h-70.1c-5.4 0-10.7.2-16.2 1.5 3.2-3.3 7.1-7.5 8.9-11.3 1.8-3.8 4.4-7.9 4.4-12.7V520h34.5c2.3 0 3-2.8 4.5-4.3 1.4-1.5 1-5.2 1-7V499h-40v-27.6c0-8.9.3-15.9 4.1-20.9 3.8-5 8.5-7.5 16.1-7.5 2.5 0 4.3.3 6.2.8 1.9.5 3.5 1.3 5.1 2.2 1.6 1 3 2.1 4.4 3.5 1.4 1.4 2.7 2.9 4.1 4.5 2.2 2.4 4.6 3.7 7.3 3.7 1.9 0 4-.6 6.3-1.8l11-7c-1.9-4.1-4.2-7.9-7-11.4-2.7-3.5-5.9-6.6-9.6-9.2-3.7-2.6-7.9-4.7-12.6-6.2-4.7-1.5-10-2.3-16-2.3-8.6 0-16.1 1.4-22.5 4.1-6.4 2.7-11.7 6.5-15.9 11.2-4.2 4.7-8.2 10.2-10.3 16.5-2.1 6.3-3.9 12.9-3.9 19.9V499h-10.4c-3 0-4 .3-5.6 2.1-1.6 1.8-1 3.4-1 5.9v13H776zm-75 138h-11.6c-1.1 0-2.3-1.7-3.6-2-1.3-.3-2.7-1-4.2-1-2 0-3.8.2-5.5.7-1.7.5-3.1 1.2-4.4 2.2-1.2 1-2.2 2.1-2.9 3.5-.7 1.4-1 2.9-1 4.6 0 2.1.5 4 1.5 5.5 1 1.6 2.4 2.8 4.1 3.8-.8.4-1.4.8-2 1.3-.6.5-1 1-1.4 1.5-.4.5-.6 1.1-.8 1.6-.2.5-.3 1.1-.3 1.6 0 1.3.3 2.3.8 3.1.5.8 1.2 1.4 2.1 1.9-1.8.7-3.1 1.5-4.1 2.6-1 1.1-1.5 2.5-1.5 4.1 0 1.2.3 2.3.9 3.4.6 1.1 1.6 2.1 2.9 2.9 1.3.8 2.9 1.5 4.8 2s4.2.8 6.9.8 5-.3 7.1-1c2.1-.7 3.8-1.6 5.3-2.7 1.4-1.1 2.5-2.4 3.3-3.9.7-1.4 1.1-2.9 1.1-4.5 0-1.7-.3-3-1-4.1s-1.5-1.9-2.5-2.5c-1-.6-2.2-1.1-3.6-1.3-1.3-.3-2.7-.5-4.1-.6-1.4-.1-2.8-.2-4.1-.2-1.3 0-2.5-.1-3.6-.2-1-.1-1.9-.4-2.5-.7-.6-.3-1-.8-1-1.5 0-.8.5-1.6 1.6-2.2 1.2.2 2.5.4 3.8.4 1.9 0 3.7-.3 5.4-.8 1.7-.5 3.1-1.3 4.3-2.2 1.2-1 2.2-2.2 2.9-3.5.7-1.4 1.1-2.9 1.1-4.7 0-.7 0-1.4-.1-2.1-.1-.7-.2-1.3-.4-1.9l3.3-.6c.7-.1 1.6-.3 1.8-.6.3-.3 1.2-.7 1.2-1.2V658zm35.5 14.7c0-2.7-.4-5.2-1.2-7.4-.8-2.2-2-4.1-3.4-5.6-1.5-1.5-3.3-2.7-5.4-3.5-2.1-.8-4.5-1.2-7-1.2-2.6 0-4.9.4-7.1 1.2-2.1.8-3.9 2-5.4 3.5-1.5 1.5-2.7 3.4-3.5 5.6-.8 2.2-1.2 4.7-1.2 7.4 0 2.8.4 5.2 1.2 7.4.8 2.2 2 4.1 3.5 5.6 1.5 1.6 3.3 2.7 5.4 3.6 2.1.8 4.5 1.3 7.1 1.3 2.6 0 4.9-.4 7-1.3 2.1-.8 3.9-2 5.4-3.6 1.5-1.6 2.6-3.4 3.4-5.6.8-2.2 1.2-4.7 1.2-7.4zm38.4 0c0-2.7-.4-5.2-1.2-7.4-.8-2.2-2-4.1-3.4-5.6-1.5-1.5-3.3-2.7-5.4-3.5-2.1-.8-4.5-1.2-7-1.2-2.6 0-4.9.4-7.1 1.2-2.1.8-3.9 2-5.4 3.5-1.5 1.5-2.7 3.4-3.5 5.6-.8 2.2-1.2 4.7-1.2 7.4 0 2.8.4 5.2 1.2 7.4.8 2.2 2 4.1 3.5 5.6 1.5 1.6 3.3 2.7 5.4 3.6 2.1.8 4.5 1.3 7.1 1.3 2.6 0 4.9-.4 7-1.3 2.1-.8 3.9-2 5.4-3.6 1.5-1.6 2.6-3.4 3.4-5.6.8-2.2 1.2-4.7 1.2-7.4zM811 637h-10v21.2c0-1-1.5-1.9-2.9-2.5-1.4-.6-2.4-.9-4.4-.9-2.3 0-4.2.5-6.1 1.4-1.8.9-3.3 2.2-4.7 3.8-1.3 1.6-2.3 3.5-3 5.8-.7 2.2-1 4.6-1 7.2 0 2.8.3 5.4.9 7.6.6 2.2 1.5 4.1 2.6 5.6s2.5 2.6 4.1 3.4c1.6.8 3.3 1.2 5.2 1.2 1.2 0 2.4-.1 3.4-.4 1.1-.3 2-.6 2.9-1.1.9-.5 1.8-1 2.6-1.6.8-.6 1.5-1.3 2.3-2.1l.7 4.6c.3 1 1 3 2.1 3h5.2V637zm40.1 21h-6.7c-.5 0-1-1.1-1.4-.9-.4.3-.7-.5-.9 0l-7 17.9c-.3.6-.5 1.2-.7 1.8-.2.6-.4 1.2-.6 1.9-.1-.6-.3-1.2-.5-1.8-.2-.6-.4-1.1-.6-1.7l-7.4-17.7c-.2-.4-.5 0-.8-.3-.4-.3-.9.8-1.6.8h-7.3l14 30.1-6.5 11.9h6.2c.8 0 1.4 1.1 1.8.7.4-.3.7.6 1 0l19-42.7zm36.9 14.5c0-2.8-.3-5.4-.9-7.5-.6-2.2-1.5-4-2.6-5.5s-2.5-2.6-4.1-3.4c-1.6-.8-3.3-1.2-5.2-1.2-2.3 0-4.5.4-6.3 1.3-1.7.9-4.9 2-4.9 3.5V637h-7v56h4.6c.6 0 1-1.6 1.3-1.8.3-.3.6-1.7.7-2.2l.4-2.6c.6.7 1.1 1.2 1.8 1.7.6.5 1.3 1 2 1.3.7.4 1.5.7 2.4.9.9.2 1.8.3 2.9.3 2.3 0 4.3-.5 6.2-1.4 1.8-.9 3.4-2.2 4.7-3.8 1.3-1.6 2.3-3.5 3-5.7.6-2.2 1-4.6 1-7.2zm34-4.3c0-2-.4-3.8-1-5.4-.6-1.6-1.5-3.1-2.7-4.2-1.1-1.2-2.5-2.1-4.1-2.8-1.6-.7-3.4-1-5.4-1-5.6 0-10.4 1.8-14.4 5.5l1.5 2.7c.2.4.6.8 1 1.1.4.3.9.4 1.4.4.7 0 1.3-.2 1.8-.5.6-.3 1.1-.7 1.8-1.1.7-.4 1.4-.8 2.3-1.1.9-.3 1.9-.5 3.2-.5 1.9 0 2.8.6 3.8 1.7s.7 2.9.7 5.2v2c-4 0-6.5.3-9.1 1-2.7.7-4.1 1.5-5.7 2.6-1.6 1-2.7 2.2-3.4 3.5-.7 1.3-1 2.6-1 3.9 0 1.6.3 2.9.7 4.1.5 1.2 1.2 2.2 2.1 2.9.9.8 2 1.4 3.2 1.8 1.2.4 2.6.6 4.1.6 1.2 0 2.4-.1 3.4-.3 1-.2 2-.5 2.9-.9.9-.4 1.8-.9 2.6-1.5s1.7-1.2 2.6-2l.7 2.6c.2.7.6 2.4 1 2.6.5.2 1.1 1.8 1.9 1.8h4.1v-24.7zm38-10.2h-10.3c-1.1 0-2.3-1.7-3.6-2-1.3-.3-2.7-1-4.2-1-2 0-3.8.2-5.5.7-1.7.5-3.1 1.2-4.4 2.2-1.2 1-2.2 2.1-2.9 3.5-.7 1.4-1 2.9-1 4.6 0 2.1.5 4 1.5 5.5 1 1.6 2.4 2.8 4.1 3.8-.8.4-1.4.8-2 1.3-.6.5-1 1-1.4 1.5-.4.5-.6 1.1-.8 1.6-.2.5-.3 1.1-.3 1.6 0 1.3.3 2.3.8 3.1.5.8 1.2 1.4 2.1 1.9-1.8.7-3.1 1.5-4.1 2.6-1 1.1-1.5 2.5-1.5 4.1 0 1.2.3 2.3.9 3.4.6 1.1 1.6 2.1 2.9 2.9 1.3.8 2.9 1.5 4.8 2s4.2.8 6.9.8 5-.3 7.1-1c2.1-.7 3.8-1.6 5.3-2.7 1.4-1.1 2.5-2.4 3.3-3.9.7-1.4 1.1-2.9 1.1-4.5 0-1.7-.3-3-1-4.1-.6-1.1-1.5-1.9-2.5-2.5-1-.6-2.2-1.1-3.6-1.3-1.3-.3-2.7-.5-4.1-.6-1.4-.1-2.8-.2-4.1-.2-1.3 0-2.5-.1-3.6-.2s-1.9-.4-2.5-.7c-.6-.3-1-.8-1-1.5 0-.8.5-1.6 1.6-2.2 1.2.2 2.5.4 3.8.4 1.9 0 3.7-.3 5.4-.8 1.7-.5 3.1-1.3 4.3-2.2 1.2-1 2.2-2.2 2.8-3.5.7-1.4 1-2.9 1-4.7 0-.7 0-1.4-.2-2.1-.1-.7-.3-1.3-.5-1.9l3.2-.6c.7-.1 1.1-.3 1.4-.6.3-.3.6-.7.6-1.2V658z"/><path d="M134.7 664.2c1.4 2 2.1 4.8 2.1 8.6 0 3.7-.7 6.6-2.1 8.5-1.4 1.9-3.5 2.9-6.4 2.9-2.9 0-5.1-1-6.5-2.9-1.4-2-2.1-4.8-2.1-8.5s.7-6.6 2.1-8.5c1.4-2 3.6-3 6.5-3 2.9-.1 5.1.9 6.4 2.9zm31.7-3.1c-1.3 0-2.4.2-3.4.7-1 .5-1.9 1.2-2.6 2.1-.7 1-1.3 2.2-1.6 3.7-.4 1.5-.6 3.2-.6 5.2s.2 3.7.5 5.2c.3 1.4.8 2.6 1.4 3.4.6.9 1.3 1.5 2.2 1.9.9.4 1.9.6 2.9.6 1.7 0 2.7-.4 3.9-1.1 1.2-.7 2.9-1.7 2.9-3.1v-15.6c0-1.1-1.4-2-2.5-2.4-1.2-.4-1.8-.6-3.1-.6zM44 692c0 .6.2 1.2.5 1.7s.8 1 1.5 1.4c.7.4 1.5.7 2.6.9 1.1.2 2.4.3 3.9.3 1.6 0 2.9-.1 4-.4 1.1-.2 2.1-.6 2.8-1 .7-.4 1.3-.9 1.6-1.5.3-.6.5-1.2.5-1.9s-.2-1.2-.6-1.7c-.4-.4-1-.8-1.7-1-.7-.2-1.5-2-2.5-2.1-.9-.1-1.9-1.7-3-1.7h-3.2c-1.1 0-2.2 1.4-3.2 1.2-.9.5-1.7 1.9-2.3 2.6-.6.7-.9 2.3-.9 3.2zm204-28.1c-.6-.9-1.3-1.5-2.2-1.9-.9-.4-1.8-.6-3-.6-1.7 0-4.2.4-5.4 1.1-1.2.7-4.4 1.8-4.4 3.1v15.6c0 1.2 3 2 4.1 2.5 1.1.5 2.8.7 4.1.7 1.3 0 2.7-.2 3.7-.7 1-.5 2-1.2 2.7-2.2.7-1 1.3-2.2 1.7-3.7.4-1.5.6-3.2.6-5.2s-.2-3.7-.5-5.2-.8-2.6-1.4-3.5zm-195.9-3.3c-2.1 0-3.6.5-4.6 1.5-1 1-1.5 2.4-1.5 4.1 0 .8.1 1.6.4 2.3.3.7.6 1.3 1.1 1.8.5.5 1.1.9 1.9 1.2.8.3 1.7.4 2.7.4 1 0 1.9-.1 2.7-.4.8-.3 1.4-.7 1.9-1.2s.9-1.1 1.1-1.8c.3-.7.4-1.5.4-2.3 0-1.7-.5-3.1-1.5-4.1-1-1-2.5-1.5-4.6-1.5zm37.8.6c-2.9 0-5.1 1-6.5 3-1.4 2-2.1 4.8-2.1 8.5s.7 6.6 2.1 8.5c1.4 1.9 3.6 2.9 6.5 2.9s5-1 6.4-2.9c1.4-1.9 2.1-4.8 2.1-8.5 0-3.8-.7-6.6-2.1-8.6-1.4-1.9-3.5-2.9-6.4-2.9zM304.3 692c0 .6.1 1.2.5 1.7.3.5.8 1 1.4 1.4.7.4 1.5.7 2.6.9 1.1.2 2.4.3 3.9.3 1.6 0 2.9-.1 4-.4 1.1-.2 2.1-.6 2.8-1 .7-.4 1.3-.9 1.6-1.5.3-.6.5-1.2.5-1.9s-.2-1.2-.6-1.7c-.4-.4-.9-.8-1.6-1-.7-.2-1.5-2-2.5-2.1-.9-.1-1.9-1.7-3-1.7h-3.2c-1.1 0-2.2 1.4-3.2 1.2-1 .5-1.7 1.9-2.3 2.6-.6.7-.9 2.3-.9 3.2zm-30.2-15c-1 .5-1.7 1-2.1 1.7-.4.6-.6 1.3-.6 2.1 0 1.5.4 2.5 1.3 3.2.9.6 2 1 3.4 1 .9 0 1.6-.1 2.4-.2.7-.2 1.4-.4 2-.7.6-.3.7-.7 1.3-1.1.6-.5 1.3-1 1.3-1.6v-5.8s-3.9.2-5.5.5c-1.8 0-2.6.4-3.5.9zm38.3-16.4c-2 0-3.6.5-4.6 1.5-1 1-1.5 2.4-1.5 4.1 0 .8.1 1.6.4 2.3.3.7.6 1.3 1.1 1.8.5.5 1.1.9 1.9 1.2.8.3 1.7.4 2.7.4 1 0 1.9-.1 2.7-.4.8-.3 1.4-.7 1.9-1.2s.9-1.1 1.1-1.8c.3-.7.4-1.5.4-2.3 0-1.7-.5-3.1-1.5-4.1-1-1-2.5-1.5-4.6-1.5zM352 349v399H19V349h62.3c.7-52 46.1-100.7 102-100.7S284.6 297 285.3 349H352zm-235.8 0h134.1c-.7-34-30.4-65.8-67.1-65.8-36.5 0-66.3 31.8-67 65.8zM147 520v24.9c0 3 0 5.7-1 8s-2.2 4.2-3.9 5.9c-1.7 1.7-3.1 3-5.4 4.1-2.3 1.1-2.6 1.9-6.6 2.5V581h105.8c1.8 0 3.6.4 5-.3s2.9-.7 3.9-1.9c1-1.1 3.1-2.5 3.7-3.9.6-1.4 2.5-2.8 2.5-4.2V560h-68.6c-5.4 0-10.7.2-16.2 1.5 3.2-3.3 6.3-7.5 8.2-11.3 1.8-3.8 3.6-7.9 3.6-12.7V520h36c2.3 0 3.3-2.8 4.7-4.3 1.4-1.5 1.3-5.2 1.3-7V499h-42v-27.6c0-8.9 1-15.9 4.8-20.9 3.8-5 8.9-7.5 16.5-7.5 2.5 0 4.5.3 6.4.8 1.9.5 3.6 1.3 5.2 2.2 1.6 1 3 2.1 4.4 3.5 1.4 1.4 2.8 2.9 4.2 4.5 2.2 2.4 4.6 3.7 7.3 3.7 1.9 0 4-.6 6.3-1.8l11-7c-1.9-4.1-4.2-7.9-7-11.4-2.7-3.5-5.9-6.6-9.6-9.2-3.7-2.6-7.9-4.7-12.6-6.2-4.7-1.5-10-2.3-16-2.3-8.6 0-16.1 1.4-22.5 4.1-6.4 2.7-11.7 6.5-15.9 11.2-4.2 4.7-8 10.2-10.1 16.5-2.1 6.3-3.7 12.9-3.7 19.9V499h-10.9c-3 0-3.8.3-5.3 2.1-1.6 1.8-.8 3.4-.8 5.9v13H147zM70 658H59.9c-1.1 0-2.3-1.7-3.6-2-1.3-.3-2.7-1-4.2-1-2 0-3.8.2-5.5.7-1.7.5-3.1 1.2-4.4 2.2-1.2 1-2.2 2.1-2.9 3.5-.7 1.4-1 2.9-1 4.6 0 2.1.5 4 1.5 5.5 1 1.6 2.4 2.8 4.1 3.8-.8.4-1.4.8-2 1.3-.6.5-1 1-1.4 1.5-.4.5-.6 1.1-.8 1.6-.2.5-.3 1.1-.3 1.6 0 1.3.3 2.3.8 3.1.5.8 1.2 1.4 2.1 1.9-1.8.7-3.1 1.5-4.1 2.6-1 1.1-1.5 2.5-1.5 4.1 0 1.2.3 2.3.9 3.4.6 1.1 1.6 2.1 2.9 2.9 1.3.8 2.9 1.5 4.8 2s4.2.8 6.9.8 5-.3 7.1-1c2.1-.7 3.8-1.6 5.3-2.7 1.4-1.1 2.5-2.4 3.3-3.9.7-1.4 1.1-2.9 1.1-4.5 0-1.7-.3-3-1-4.1-.6-1.1-1.5-1.9-2.5-2.5-1-.6-2.2-1.1-3.6-1.3-1.3-.3-2.7-.5-4.1-.6-1.4-.1-2.8-.2-4.1-.2-1.3 0-2.5-.1-3.6-.2-1-.1-1.9-.4-2.5-.7-.6-.3-1-.8-1-1.5 0-.8.5-1.6 1.6-2.2 1.2.2 2.5.4 3.8.4 1.9 0 3.7-.3 5.4-.8 1.7-.5 3.1-1.3 4.3-2.2 1.2-1 2.2-2.2 2.9-3.5.7-1.4 1.1-2.9 1.1-4.7 0-.7 0-1.4-.1-2.1-.1-.7-.2-1.3-.4-1.9l3.3-.6c.7-.1.8-.3 1.1-.6.3-.3.5-.7.5-1.2V658zm37 14.7c0-2.7-.4-5.2-1.2-7.4-.8-2.2-2-4.1-3.4-5.6-1.5-1.5-3.3-2.7-5.4-3.5-2.1-.8-4.5-1.2-7-1.2-2.6 0-4.9.4-7.1 1.2-2.1.8-3.9 2-5.4 3.5-1.5 1.5-2.7 3.4-3.5 5.6-.8 2.2-1.2 4.7-1.2 7.4 0 2.8.4 5.2 1.2 7.4.8 2.2 2 4.1 3.5 5.6 1.5 1.6 3.3 2.7 5.4 3.6 2.1.8 4.5 1.3 7.1 1.3 2.6 0 4.9-.4 7-1.3 2.1-.8 3.9-2 5.4-3.6 1.5-1.6 2.6-3.4 3.4-5.6.8-2.2 1.2-4.7 1.2-7.4zm38.4 0c0-2.7-.4-5.2-1.2-7.4-.8-2.2-2-4.1-3.4-5.6-1.5-1.5-3.3-2.7-5.4-3.5-2.1-.8-4.5-1.2-7-1.2-2.6 0-4.9.4-7.1 1.2-2.1.8-3.9 2-5.4 3.5-1.5 1.5-2.7 3.4-3.5 5.6-.8 2.2-1.2 4.7-1.2 7.4 0 2.8.4 5.2 1.2 7.4.8 2.2 2 4.1 3.5 5.6 1.5 1.6 3.3 2.7 5.4 3.6 2.1.8 4.5 1.3 7.1 1.3 2.6 0 4.9-.4 7-1.3 2.1-.8 3.9-2 5.4-3.6 1.5-1.6 2.6-3.4 3.4-5.6.8-2.2 1.2-4.7 1.2-7.4zM182 637h-10v21.2c0-1-1.8-1.9-3.1-2.5-1.4-.6-2.5-.9-4.5-.9-2.3 0-4.3.5-6.1 1.4-1.8.9-3.4 2.2-4.7 3.8-1.3 1.6-2.3 3.5-3 5.8-.7 2.2-1 4.6-1 7.2 0 2.8.3 5.4.9 7.6.6 2.2 1.5 4.1 2.6 5.6s2.5 2.6 4.1 3.4c1.6.8 3.3 1.2 5.2 1.2 1.2 0 2.3-.1 3.4-.4 1.1-.3 2-.6 2.9-1.1.9-.5 1.8-1 2.6-1.6.8-.6 1.5-1.3 2.3-2.1l.7 4.6c.3 1 1 3 2.1 3h5.6V637zm39.7 21H215c-.5 0-1-1.1-1.4-.9-.4.3-.7-.5-.9 0l-7 17.9c-.3.6-.5 1.2-.7 1.8-.2.6-.4 1.2-.6 1.9-.1-.6-.3-1.2-.5-1.8-.2-.6-.4-1.1-.6-1.7l-7.4-17.7c-.2-.4-.5 0-.8-.3-.4-.3-.9.8-1.6.8h-7.3l14 30.1-6.5 11.9h6.2c.8 0 1.4 1.1 1.8.7.4-.3.7.6 1 0l19-42.7zm36.8 14.5c0-2.8-.3-5.4-.9-7.5-.6-2.2-1.5-4-2.6-5.5s-2.5-2.6-4.1-3.4c-1.6-.8-3.3-1.2-5.2-1.2-2.3 0-5.3.4-7 1.3-1.7.9-5.7 2-5.7 3.5V637h-5v56h4.2c.6 0 1-1.6 1.3-1.8.3-.3.6-1.7.7-2.2l.4-2.6c.6.7 1.1 1.2 1.8 1.7.6.5 1.3 1 2 1.3.7.4 1.5.7 2.4.9.9.2 1.8.3 2.9.3 2.3 0 4.3-.5 6.2-1.4 1.8-.9 3.4-2.2 4.7-3.8 1.3-1.6 2.3-3.5 3-5.7.6-2.2.9-4.6.9-7.2zm34.5-4.3c0-2-.7-3.8-1.2-5.4-.6-1.6-1.7-3.1-2.8-4.2-1.1-1.2-2.5-2.1-4.1-2.8-1.6-.7-3.4-1-5.5-1-5.6 0-10.5 1.8-14.4 5.5l1.5 2.7c.2.4.6.8 1 1.1.4.3.9.4 1.4.4.7 0 1.3-.2 1.8-.5.6-.3 1.1-.7 1.8-1.1.7-.4 1.4-.8 2.3-1.1.9-.3 1.9-.5 3.2-.5 1.9 0 3.1.6 4 1.7 1 1.1.9 2.9.9 5.2v2c-4 0-6.7.3-9.4 1s-4.2 1.5-5.8 2.6c-1.6 1-2.8 2.2-3.5 3.5-.7 1.3-1 2.6-1 3.9 0 1.6.2 2.9.7 4.1.5 1.2 1.2 2.2 2.1 2.9.9.8 2 1.4 3.2 1.8 1.2.4 2.6.6 4.1.6 1.2 0 2.4-.1 3.4-.3 1-.2 2-.5 2.9-.9.9-.4 1.8-.9 2.6-1.5s1.7-1.2 2.6-2l.7 2.6c.2.7.6 2.4 1 2.6.5.2 1.1 1.8 1.9 1.8h4.5v-24.7zm38-10.2h-10.8c-1.1 0-2.3-1.7-3.6-2-1.3-.3-2.7-1-4.2-1-2 0-3.8.2-5.5.7-1.7.5-3.1 1.2-4.4 2.2-1.2 1-2.2 2.1-2.9 3.5-.7 1.4-1 2.9-1 4.6 0 2.1.5 4 1.5 5.5 1 1.6 2.4 2.8 4.1 3.8-.8.4-1.4.8-2 1.3-.6.5-1 1-1.4 1.5-.4.5-.6 1.1-.8 1.6-.2.5-.3 1.1-.3 1.6 0 1.3.3 2.3.8 3.1.5.8 1.2 1.4 2.1 1.9-1.8.7-3.1 1.5-4.1 2.6-1 1.1-1.5 2.5-1.5 4.1 0 1.2.3 2.3.9 3.4.6 1.1 1.6 2.1 2.9 2.9 1.3.8 2.9 1.5 4.8 2s4.2.8 6.9.8 5-.3 7.1-1c2.1-.7 3.8-1.6 5.3-2.7 1.4-1.1 2.5-2.4 3.3-3.9.7-1.4 1.1-2.9 1.1-4.5 0-1.7-.3-3-1-4.1s-1.5-1.9-2.5-2.5c-1-.6-2.2-1.1-3.6-1.3-1.3-.3-2.7-.5-4.1-.6-1.4-.1-2.8-.2-4.1-.2-1.3 0-2.5-.1-3.6-.2s-1.9-.4-2.5-.7c-.6-.3-1-.8-1-1.5 0-.8.5-1.6 1.6-2.2 1.2.2 2.5.4 3.8.4 1.9 0 3.7-.3 5.4-.8 1.7-.5 3.1-1.3 4.3-2.2 1.2-1 2.2-2.2 2.8-3.5.7-1.4 1-2.9 1-4.7 0-.7 0-1.4-.2-2.1-.1-.7-.3-1.3-.5-1.9l3.2-.6c.7-.1 1.3-.3 1.6-.6.3-.3.8-.7.8-1.2V658zM498.1 548.5L376.6 427l71.4-71.4 50.1 50.1 50.1-50.1 71.4 71.4-121.5 121.5z"/><path d="M663 130H336.5c-32.3 0-58.7 26.4-58.7 58.7v583.1c0 32.3 26.4 58.7 58.7 58.7H663c32.3 0 58.7-26.4 58.7-58.7V188.7c0-32.3-26.4-58.7-58.7-58.7M499.7 789.1c-22.8 0-41.4-18.5-41.4-41.3s18.5-41.3 41.4-41.3c22.8 0 41.3 18.5 41.3 41.3s-18.4 41.3-41.3 41.3m143-125.1h-287V212.2h287V664z"/><path class="gst0" d="M442.5 732.6c17.9 0 32.5-14.8 32.5-31.9 0-8.5-3.6-16.5-9.4-22.3-5.9-5.9-14.1-9.7-23-9.6h-24.4 32.3c17.9 0 32.5-14.8 32.5-31.9 0-8.5-3.6-16.5-9.4-22.3-5.9-5.9-14.1-9.7-23-9.6h-95.9v-.3h-45.1c18.6-31.8 36.1-83.1 43.1-99.2 17.8-41.1-18.6-67.7-50.2-60.5 0 0-66.3 150.2-70.4 159.2-4.1 9-14.7 40.3-48.5 40.3h-28V798c0 17.3 11.5 32.9 22.9 44.3 11.4 11.3 27.5 18.3 46.6 18.3h201.8c17.9 0 32.5-14.8 32.5-31.9 0-8.5-3.6-16.5-9.4-22.3-5.9-5.9-14.1-9.7-23-9.6h-8.4H435c17.9 0 32.5-14.8 32.5-31.9 0-8.5-3.6-16.5-9.4-22.3-5.9-5.9-14.1-9.7-23-9.6h-16.4l23.8-.4z"/><path d="M426.5 868.3H224.8c-20.3 0-38.8-7.3-52.2-20.7-16.7-16.8-25.2-33.6-25.2-49.9V644.3c0-4.4 3.6-7.9 7.9-7.9h28c26 0 35.6-22.4 40.2-33.2l1.1-2.5c4-8.9 69.7-157.6 70.4-159.1 1-2.3 3.1-4 5.5-4.5 19.8-4.5 41.5 2.5 53.9 17.5 12 14.4 13.9 34.1 5.3 54-1.8 4.1-4.3 10.6-7.3 18.4-7.4 19.4-18.1 47.1-29.7 69.7h31.7c.7 0 1.4.1 2 .3h93.9c10.7 0 20.9 4.3 28.6 12 7.6 7.6 11.8 17.5 11.8 27.9 0 10.3-4.3 20.5-11.9 28-2.7 2.7-5.8 5-9 6.8.4.4.8.7 1.2 1.1 7.6 7.6 11.8 17.5 11.8 28 0 10.3-4.3 20.5-11.9 28-2.7 2.7-5.8 5-9 6.8.4.4.8.7 1.2 1.1 7.6 7.6 11.8 17.5 11.8 28 0 10.3-4.3 20.5-11.9 28-2.7 2.7-5.8 5-9 6.8.4.4.8.7 1.2 1.1 7.6 7.6 11.8 17.5 11.8 28 0 21.4-18.5 39.7-40.5 39.7zM163.3 652.2v145.5c0 12 6.9 25 20.5 38.7 10.3 10.3 24.9 16 41 16h201.8c13.3 0 24.6-11 24.5-24 0-6.2-2.5-12.1-7.1-16.7-4.7-4.7-10.9-7.3-17.4-7.3h-8.5c-4.4 0-7.9-3.6-7.9-7.9 0-4.4 3.6-7.9 7.9-7.9h16.4c6.5 0 12.6-2.6 17.3-7.2 4.6-4.5 7.2-10.6 7.2-16.7 0-6.2-2.5-12.1-7.1-16.7-4.7-4.7-10.9-7.3-17.4-7.3h-16.4c-4.4 0-7.9-3.6-7.9-7.9 0-4.4 3.6-7.9 7.9-7.9h24.4c6.5 0 12.6-2.6 17.3-7.2 4.6-4.5 7.2-10.6 7.2-16.8 0-6.2-2.5-12.1-7.1-16.7-4.7-4.7-10.9-7.3-17.4-7.3h-24.4c-4.4 0-7.9-3.6-7.9-7.9 0-4.4 3.6-7.9 7.9-7.9h32.4c6.5 0 12.6-2.6 17.3-7.2 4.6-4.5 7.2-10.6 7.2-16.8 0-6.2-2.5-12.1-7.1-16.7-4.7-4.7-10.9-7.3-17.4-7.3h-95.9c-.7 0-1.4-.1-2-.3h-43.1c-2.8 0-5.5-1.5-6.9-4-1.4-2.5-1.4-5.5 0-8 13.5-23 26.5-56.9 35.1-79.3 3.1-8.1 5.7-14.8 7.5-19 6.2-14.4 5.2-27.7-3-37.5-7.9-9.5-21.3-14.4-34.4-12.8-10.6 24.1-65 147.1-68.7 155.4l-.9 2.2c-5 11.7-18.3 42.8-54.8 42.8h-20.1z"/></svg><view id="src-svg-spread-invite" viewBox="7000 0 1000 1000"/><svg id="src-svg-spread-invite-" viewBox="0 0 1000 1000" width="1000" height="1000" x="7000" xmlns="http://www.w3.org/2000/svg"><style>.hst0{fill:#73b62b}</style><path class="hst0" d="M351.8 598.5L161.3 407.9l112-112 78.6 78.6 78.6-78.6 112 112-190.7 190.6z"/><path d="M958.4 449.1L760.7 275v108c-151.5 0-274.3 122.8-274.3 274.3 0 22.8 2.8 44.9 8.1 66.1C524 603.8 632 515.2 760.7 515.2v108l197.7-174.1z"/><path d="M722.4 349.6V158.5H41v681.4h681.4V554.1c-27.5 4.4-53.5 13.5-77.1 26.6v182H118.1V235.6h527.1v133.9c24.4-9.7 50.3-16.5 77.2-19.9z"/></svg><view id="src-svg-spread-link" viewBox="8000 0 1000 1000"/><svg viewBox="0 0 1000 1000" width="1000" height="1000" id="src-svg-spread-link-" x="8000" xmlns="http://www.w3.org/2000/svg"><path d="M499 65.9c-239 0-432.8 193.8-432.8 432.8S260 931.6 499 931.6s432.8-193.8 432.8-432.8S738 65.9 499 65.9zM395.1 566.8c-7.8 7.8-18 11.7-28.3 11.7s-20.5-3.9-28.3-11.7L284 512.2c-61.2-61.2-61.2-160.8 0-222s160.8-61.2 222 0l54.5 54.5c15.6 15.6 15.6 40.9 0 56.6-15.6 15.6-40.9 15.6-56.6 0l-54.5-54.5c-14.5-14.5-33.8-22.4-54.4-22.4s-40 8-54.4 22.4c-14.4 14.4-22.4 33.8-22.4 54.4s8 40 22.4 54.4l54.5 54.5c15.6 15.7 15.6 41.1 0 56.7zm14.5-150.9c15.6-15.6 40.9-15.6 56.6 0l122.3 122.3c15.6 15.6 15.6 40.9 0 56.6-7.8 7.8-18 11.7-28.3 11.7-10.2 0-20.5-3.9-28.3-11.7L409.6 472.4c-15.6-15.6-15.6-40.9 0-56.5zm304.5 304.3c-30.6 30.6-70.8 45.9-111 45.9s-80.4-15.3-111-45.9l-54.5-54.5c-15.6-15.6-15.6-40.9 0-56.6 15.6-15.6 40.9-15.6 56.6 0l54.5 54.5c14.5 14.5 33.8 22.4 54.4 22.4s40-8 54.4-22.4 22.4-33.8 22.4-54.4c0-20.7-8-40-22.4-54.4L603 500.4c-15.6-15.6-15.6-40.9 0-56.6s40.9-15.6 56.6 0l54.5 54.5c29.6 29.6 45.8 69 45.8 111s-16.3 81.5-45.8 110.9z"/></svg><view id="src-svg-spread-my-recruits" viewBox="9000 0 1000 1000"/><svg width="1000" height="1000" viewBox="0 0 1000 1000" id="src-svg-spread-my-recruits-" x="9000" xmlns="http://www.w3.org/2000/svg"><path d="M422.27 117.705c-210.909 0-381.885 170.976-381.885 381.885S211.361 881.474 422.27 881.474c210.91 0 381.884-170.976 381.884-381.885-.001-210.908-170.976-381.884-381.884-381.884zm0 687.392c-168.727 0-305.507-136.78-305.507-305.506 0-168.728 136.78-305.507 305.507-305.507s305.507 136.78 305.507 305.507c-.001 168.726-136.78 305.506-305.507 305.506z"/><path fill="#35ADCE" d="M422.27 194.083c-168.727 0-305.507 136.781-305.507 305.507s136.78 305.507 305.507 305.507 305.507-136.78 305.507-305.506c-.001-168.728-136.78-305.508-305.507-305.508zm0 534.636c-126.546 0-229.13-102.584-229.13-229.13S295.725 270.46 422.27 270.46 651.4 373.045 651.4 499.59 548.814 728.719 422.27 728.719z"/><path d="M422.27 270.46c-126.546 0-229.13 102.585-229.13 229.13s102.585 229.13 229.13 229.13S651.4 626.135 651.4 499.59 548.814 270.46 422.27 270.46zm0 381.883c-84.363 0-152.754-68.39-152.754-152.754s68.39-152.754 152.754-152.754 152.753 68.391 152.753 152.755c.001 84.363-68.39 152.753-152.753 152.753z"/><path fill="#35ADCE" d="M422.27 346.837c-84.363 0-152.754 68.39-152.754 152.754 0 84.363 68.39 152.754 152.754 152.754s152.754-68.39 152.754-152.754c0-84.365-68.391-152.754-152.754-152.754zm0 229.13c-42.182 0-76.376-34.195-76.376-76.376 0-42.182 34.195-76.376 76.376-76.376 42.182 0 76.376 34.194 76.376 76.376 0 42.181-34.195 76.376-76.376 76.376z"/><circle cx="422.27" cy="499.59" r="76.376"/><path fill="#00528B" d="M862.084 240.156l107.353 32.868-127.92 73.027c-15.927 9.195-133.352-20.105-133.352-20.105s34.772-111.022 51.927-120.927l124.881-72.228-22.889 107.365z"/><path fill="#FFF" d="M865.443 248.002c5.316 9.206 2.161 20.98-7.045 26.296l-435.77 239.679c-11.833 11.091-36.52-14.634-19.091-26.937l425.988-262.751c9.206-5.316 20.98-2.161 26.296 7.045l9.622 16.668z"/></svg><view id="src-svg-spread-order-sim" viewBox="10000 0 1000 1000"/><svg width="1000" height="1000" viewBox="0 0 1000 1000" id="src-svg-spread-order-sim-" x="10000" xmlns="http://www.w3.org/2000/svg"><path d="M769.813 819.068c-20.665 0-38.099 7.79-52.546 23.301-14.455 15.608-21.754 34.23-21.754 55.907 0 21.711 7.299 40.105 21.754 55.295 14.446 15.176 31.881 22.818 52.546 22.818 21.338 0 39.212-7.642 53.667-22.818 14.423-15.188 21.642-33.583 21.642-55.295 0-21.678-7.219-40.299-21.642-55.907-14.455-15.511-32.329-23.301-53.667-23.301zM992.992 407.31c-6.371-10.563-23.051-15.815-50.18-15.815H318.758L250.99 244.812c-6.742-14.294-16.205-22.965-28.199-26.011-6.296-1.563-12.367-1.977-18.239-1.394l-157.45-.295c-15.8.082-27.655 5.016-35.461 14.622C3.85 241.404-.03 252.048 0 263.592c-.013 11.657 3.753 22.298 11.214 32.048 7.559 9.669 19.221 14.487 35.009 14.331 13.141.054 81.027.197 132.085.313 6.272 14.738 151.7 391.85 166.026 430.968 6.056 13.545 12.74 25.755 20.3 36.648 7.535 10.924 18.818 16.398 33.912 16.398h466.725c15.04 0 26.92-5.644 35.533-16.948 8.73-11.281 14.871-23.281 18.622-36.098l77.49-295.599c3.839-15.023 2.501-27.845-3.924-38.343zM464.366 710.955c-11.054 1.137-19.066-6.203-20.424-19.3-5.645-54.479-20.831-158.073-23.208-178.498-2.428-20.874 11.811-35.147 28.388-28.106 7.01 2.978 10.928 9.128 11.831 17.88 4.249 41.212 19.583 144.217 23.076 177.677.259 2.488.435 4.988.525 6.046.019 15.168-6.837 22.929-20.188 24.301zm83.408.321c-13.663.333-20.068-7.512-20.757-24.103-1.989-47.934-8.82-152.594-9.613-180.202-.442-15.319 6.386-22.84 19.865-23.254 13.178-.403 20.084 7.086 20.744 22.406 1.666 38.746 8.382 143.456 9.705 180.264.599 16.665-6.073 24.551-19.944 24.889zm76.813-.883c-8.159-2.031-12.457-10.756-12.487-23.283-.077-32.688-.137-136.074-.022-178.26.049-17.078 6.638-25.152 19.969-25.257 14.532-.114 21.028 7.719 21.038 25.526.027 37.158-.043 138.871.169 175.748.142 24.741-13.346 29.343-28.667 25.526zm113.826-24.756c-.671 26.671-17.562 29.295-31.243 23.312-5.869-2.566-9.471-8.774-9.662-16.913-.097-4.182-.017-8.37-.017-11.806 2.709-59.546 9.317-158.628 9.705-172.57.445-15.941 6.993-24.193 19.452-24.018 15.062.213 21.833 7.784 21.222 25.152-1.318 37.633-8.534 140.038-9.457 176.843zm106.058-172.999c-5.076 47.876-20.222 151.618-23.176 178.721-1.462 13.387-9.305 20.663-20.302 19.611-13.6-1.3-20.573-9.408-20.285-24.554 2.715-26.47 18.293-132.39 23.399-181.104 1.633-15.58 9.742-23.205 21.769-21.083 14.808 2.61 20.379 11.567 18.595 28.409zM506.442 819.068c-20.662 0-38.101 7.79-52.546 23.301-14.455 15.608-21.754 34.23-21.754 55.907 0 21.711 7.299 40.105 21.754 55.295 14.445 15.176 31.884 22.818 52.546 22.818 21.337 0 39.212-7.642 53.667-22.818 14.425-15.188 21.644-33.583 21.644-55.295 0-21.678-7.219-40.299-21.644-55.907-14.455-15.511-32.329-23.301-53.667-23.301z"/><g><path fill="#35ACCD" d="M524.754 390.203V279.896h183.999v110.307h50.417v-216.57L657.735 68.489H511.962c-20.693 0-37.618 16.925-37.618 37.614v284.101h50.41z"/></g><g><path fill="#FDC41F" d="M980.115 297.051l-54.133-135.698-134.945-55.133c-19.156-7.827-41.225 1.44-49.05 20.592l-8.326 20.379 25.509 26.442v147.939l134.083 54.78-6.187 15.143h54.463l38.586-94.444z"/><path fill="#71B543" d="M474.344 339.694V138.441l-16.482-11.242-142.728 29.64c-20.261 4.208-33.391 24.22-29.184 44.477l39.494 190.179h51.485l-6.285-30.266 103.7-21.535z"/></g></svg><view id="src-svg-spread-send-sim" viewBox="11000 0 1000 1000"/><svg width="1000" height="1000" viewBox="0 0 1000 1000" id="src-svg-spread-send-sim-" x="11000" xmlns="http://www.w3.org/2000/svg"><path d="M499.202 602.395l422.602-202.947-362.867-221.751c-59.735-33.956-59.735-33.956-115.545 0L76.599 399.448l422.603 202.947z"/><path fill="#35ACCD" d="M244.802 742.113V373.416c0-22.31 18.251-40.56 40.559-40.56h427.681c22.307 0 40.559 18.25 40.559 40.56l-.001 368.696-508.798.001z"/><path fill="#FFF" d="M316.142 490.451h366.12v33.583h-366.12zM316.142 568.811h366.12v33.583h-366.12zM316.142 412.09h366.12v33.583h-366.12z"/><path d="M499.202 659.968L76.617 444.227v368.697c0 22.31 18.251 40.56 40.559 40.56h764.053c22.307 0 40.559-18.25 40.559-40.56l-.001-368.696-422.585 215.74z"/></svg><view id="src-svg-spread-share" viewBox="12000 0 1000 1000"/><svg width="1000" height="1000" viewBox="0 0 1000 1000" id="src-svg-spread-share-" x="12000" xmlns="http://www.w3.org/2000/svg"><path d="M774.139 497.935c90.619-83.557 144.55-169.274 111.456-224.903-10.976-18.427-36.59-40.38-96.302-40.38-41.827 0-94.477 10.837-152.42 30.392a802.794 802.794 0 0 0-6.7-28.721c-11.073 6.839-23.79 11.226-37.44 12.326a745.952 745.952 0 0 1 6.853 29.85c-32.704 12.634-66.649 27.759-101.01 45.1-33.038-15.544-65.574-29.124-96.914-40.448 23.343-114.617 62.789-187.576 99.45-187.576 7.883 0 15.892 3.399 23.845 9.805 9.388-9.694 21.032-17.145 34.111-21.491-17.244-17.548-36.575-27.424-57.956-27.424-65.311 0-111.623 91.845-136.918 214.111-56.994-17.842-108.948-27.607-151.388-27.607-64.907 0-91.621 23.525-102.61 43.276-31.479 56.537 24.82 140.594 117.751 221.449a924.373 924.373 0 0 0-12.857 12.158c11.686 6.296 21.701 15.265 29.292 26.059a849.64 849.64 0 0 1 13.901-12.981c26.993 21.561 56.27 42.635 86.831 62.65 2.687 37.216 6.963 73.807 12.841 108.558C302.367 721.317 252.21 732 212.933 732c-32.246 0-54.488-7.562-62.679-21.296-5.349-8.998-5.376-21.826-.681-37.343-13.108-4.124-24.863-11.378-34.362-20.893-11.477 30.642-11.185 57.051 1.449 78.264 10.961 18.413 36.563 40.378 96.274 40.378 41.827 0 94.477-10.836 152.405-30.391 25.545 119.492 71.454 208.579 135.776 208.579 65.297 0 111.622-91.831 136.917-214.108a737.066 737.066 0 0 0 51.688 14.193c-.237-2.535-.39-5.097-.39-7.704 0-11.045 2.187-21.574 6.059-31.268a723.664 723.664 0 0 1-50.17-14.152c5.529-33.874 9.581-69.448 12.089-105.579 30.726-21.296 60.115-43.692 87.095-66.535 87.402 75.45 131.137 144.564 113.447 176.349-1.505 2.701-3.538 5.168-6.073 7.437 4.513 10.349 7.076 21.757 7.076 33.748 0 2.717-.167 5.392-.417 8.065 17.662-8.51 27.829-19.877 33.596-30.226 31.476-56.544-24.879-140.671-117.893-221.583zm-485.854 6.84c16.993-14.178 35.072-28.26 54.112-42.133a1272.753 1272.753 0 0 0-.612 39.237c0 14.262.249 28.567.737 42.9-19.277-13.331-37.399-26.703-54.237-40.004zm56.633-91.887c-31.339 21.659-60.617 44.015-87.277 66.579-87.276-75.395-130.955-144.425-113.266-176.183 8.316-14.958 32.62-23.19 68.431-23.19 39.334 0 89.184 9.792 144.216 27.398-5.53 33.845-9.569 69.336-12.104 105.396zm261.939-97.402c3.552 21.742 6.547 44.683 8.858 68.695a1268.723 1268.723 0 0 0-37.106-21.506c-11.964-6.658-23.929-13.009-35.851-19.179 21.757-10.348 43.207-19.736 64.099-28.01zM394.56 320.39c19.694 7.242 39.863 15.446 60.31 24.431-11.769 6.518-23.512 13.176-35.254 20.141a1375.13 1375.13 0 0 0-33.234 20.503c2.16-22.663 4.89-44.434 8.178-65.075zm-8.051 299.197a1250.56 1250.56 0 0 0 37.106 21.506c11.978 6.672 23.929 12.994 35.851 19.179-21.757 10.337-43.207 19.725-64.098 28.011-3.566-21.742-6.547-44.683-8.859-68.696zm114.604 290.59c-36.159 0-75.034-70.979-98.474-182.909 32.703-12.646 66.662-27.774 101.009-45.115 33.039 15.558 65.574 29.139 96.914 40.462-23.344 114.606-62.79 187.562-99.449 187.562zm106.553-226.81c-19.681-7.243-39.864-15.433-60.297-24.403 11.742-6.532 23.498-13.204 35.224-20.167a1289.36 1289.36 0 0 0 33.263-20.503c-2.174 22.659-4.905 44.43-8.19 65.073zm11.838-114.173a1239.375 1239.375 0 0 1-56.912 35.978c-19.834 11.825-39.724 22.842-59.474 33.247-20.127-9.82-40.336-20.293-60.478-31.507-20.837-11.601-40.755-23.497-59.808-35.503-1.227-22.51-1.923-45.672-1.923-69.531 0-23.066.64-45.532 1.812-67.374a1297.497 1297.497 0 0 1 56.912-35.907c19.834-11.813 39.711-22.858 59.474-33.248 20.127 9.834 40.339 20.294 60.478 31.507 20.837 11.589 40.755 23.483 59.794 35.503a1262.126 1262.126 0 0 1 1.937 69.518 1255.776 1255.776 0 0 1-1.812 67.317zm40.323-28.26c.404-13.038.613-26.047.613-39.056 0-14.25-.265-28.568-.738-42.872 19.194 13.232 37.23 26.575 54 39.807-16.685 13.971-34.695 28.067-53.875 42.121zm83.836-68.321c-26.91-21.491-56.104-42.481-86.551-62.414-2.688-37.216-6.965-73.819-12.842-108.558 55.588-19.207 105.745-29.876 145.023-29.876 32.245 0 54.516 7.564 62.679 21.283 18.608 31.255-23.122 101.608-108.309 179.565z"/><path fill="#FDC41F" d="M774.08 653.431c-48.725 0-88.232 39.529-88.232 88.252 0 48.746 39.508 88.254 88.232 88.254 48.746 0 88.252-39.508 88.252-88.254 0-48.723-39.506-88.252-88.252-88.252zM585.592 76.841c-48.725 0-88.232 39.529-88.232 88.252 0 48.746 39.508 88.254 88.232 88.254 48.746 0 88.252-39.508 88.252-88.254 0-48.723-39.506-88.252-88.252-88.252zM176.179 503.021c-48.725 0-88.232 39.529-88.232 88.253 0 48.746 39.508 88.254 88.232 88.254 48.746 0 88.252-39.508 88.252-88.254 0-48.725-39.507-88.253-88.252-88.253zM497.349 411.488c-48.725 0-88.232 39.529-88.232 88.252 0 48.746 39.508 88.254 88.232 88.254 48.746 0 88.252-39.508 88.252-88.254.001-48.723-39.506-88.252-88.252-88.252z"/></svg><view id="src-svg-spread-share-the-love" viewBox="13000 0 1000 1000"/><svg id="src-svg-spread-share-the-love-" viewBox="0 0 1000 1000" width="1000" height="1000" x="13000" xmlns="http://www.w3.org/2000/svg"><style>.nst0{fill:#36adce}.nst1{fill:#00528b}</style><path class="nst0" d="M346.1 701.3c.8-1.8 1.5-3.7 2-5.6 1.9-6.7 2.2-13.4 1.3-19.8l53.1 15.1c3.6 1 7.4 1.6 11.1 1.6 7.5 0 15-2.1 21.7-6.3 9.8-6 16.9-15.5 20.2-26.8 2.1-7.5 2.3-15.1.9-22.2 6.7-.3 13.4-2.3 19.5-6 9.6-5.9 16.7-15.3 19.9-26.5 6.7-23.5-5.9-47.7-28-54l-7.8-2.2c4.4-5 7.7-11 9.7-17.9 6.8-23.8-6-48.3-28.3-54.7l-334.7-99.4L295 174.9l192.2 173.3L681 168.6l78.2 84.8c-28.3 22.5-99.9 78.9-111.6 90.4l-2.1 2c-13.4 13-38.3 37.3-18.5 67.9 7.6 11.7 19.3 16.3 31.6 16.9 14.5.7 29.8-4 40.2-9l73.9-46 98.6 5.7-.2.4 57.8 61.1L801.7 557l-.5.3-85.8 75.4-34.4 30.5-53.7 47.2c-1.3 1.1-2.5 2.4-3.6 3.6L489.3 833.1 346.1 701.3z"/><path class="nst1" d="M737.6 758.6c9.2 10.4 21.8 15.8 34.3 15.8 9.8 0 19.4-3.3 27.1-10.1l140.5-123.8c5.3-4.7 5.8-12.7 1.1-18-4.7-5.3-12.7-5.8-18-1.1L782.1 745.1c-6.9 6.1-18.3 4.6-25.3-3.4s-7.1-19.5-.2-25.6L896.3 593c5.3-4.7 5.8-12.7 1.2-18-4.7-5.3-12.7-5.8-18-1.1L811.2 634c-.2.2-.5.3-.7.5l-140.9 124c-6.9 6.1-18.3 4.6-25.3-3.4s-7.1-19.5-.2-25.6l9.5-8.4 114-99.5 61.5-54.3L967 445.8l-84.5-87.5-.1-.3v-.4l-116-7.2-78 50.5c-.3.2-32.6 14.6-42.1.1-8.2-12.6-2.3-21.8 15.2-38.8l2.1-2.1c10.7-10.5 82.5-66.9 117-94.5h.2v.7l114.6 5v-.2c6.3.2 11.6-4.6 11.9-10.9.3-6.4-4.6-11.8-10.9-12.1-.8 0-1.7 0-2.5.2l-110.4-5.2L682.6 133 487 314.3 293.7 139.9 150.1 291.3 43 298.4h-.4c-6.8 1-11.5 7.4-10.5 14.3 1 6.2 6.4 10.7 12.5 10.6v.1l80.3-5.3L60 389l374.1 111.5c8.9 2.5 13.7 12.9 10.8 23.1-2.9 10.2-12.5 16.5-21.4 14l-247-69.6c-6.8-1.9-13.8 2-15.8 8.8-1.9 6.8 2 13.8 8.8 15.8L284.3 525l-.1.2 176.4 50.2c8.6 2.4 13.3 12.5 10.5 22.4-1.4 5-4.5 9.1-8.6 11.7-3.8 2.3-8.1 3-12.1 1.9l-177.3-50.5-.1.4-116.2-32.9c-6.8-1.9-13.9 2-15.8 8.8-1.9 6.8 2 13.9 8.8 15.8L420 629.4c8.9 2.5 13.7 12.9 10.8 23.1-1.5 5.2-4.6 9.4-8.9 12-3.9 2.4-8.4 3.1-12.5 1.9L228.9 615c-.2-.1-.5-.1-.7-.1L140.7 590c-6.8-1.9-13.9 2-15.8 8.8-1.9 6.8 2 13.9 8.8 15.8l179.1 51c8.9 2.5 13.7 12.9 10.8 23.1-1.5 5.1-4.6 9.4-8.9 12-4 2.4-8.4 3.1-12.5 1.9l-180.1-51.3c-6.8-1.9-13.9 2-15.8 8.8-1.9 6.8 2 13.9 8.8 15.8l180.1 51.3c3.7 1 7.4 1.6 11.1 1.6 7.5 0 15-2.1 21.8-6.3.7-.4 1.4-.9 2-1.4l158 144.6 127.5-111.3c1.9 6.2 5 12.2 9.7 17.5 9.2 10.4 21.8 15.8 34.3 15.8 9.8 0 19.4-3.3 27.1-10.1l41.4-36.5c1.7 6.3 4.9 12.2 9.5 17.5zm-391.5-57.3c.8-1.8 1.5-3.7 2-5.6 1.9-6.7 2.2-13.4 1.3-19.8l53.1 15.1c3.6 1 7.4 1.6 11.1 1.6 7.5 0 15-2.1 21.7-6.3 9.8-6 16.9-15.5 20.2-26.8 2.1-7.5 2.3-15.1.9-22.2 6.7-.3 13.4-2.3 19.5-6 9.6-5.9 16.7-15.3 19.9-26.5 6.7-23.5-5.9-47.7-28-54l-7.8-2.2c4.4-5 7.7-11 9.7-17.9 6.8-23.8-6-48.3-28.3-54.7l-334.7-99.4L295 174.9l192.2 173.3L681 168.6l78.2 84.8c-28.3 22.5-99.9 78.9-111.6 90.4l-2.1 2c-13.4 13-38.3 37.3-18.5 67.9 7.6 11.7 19.3 16.3 31.6 16.9 14.5.7 29.8-4 40.2-9l73.9-46 98.6 5.7-.2.4 57.8 61.1L801.7 557l-.5.3-85.8 75.4-34.4 30.5-53.7 47.2c-1.3 1.1-2.5 2.4-3.6 3.6L489.3 833.1 346.1 701.3z"/></svg><view id="src-svg-spread-sorting" viewBox="14000 0 1000 1000"/><svg viewBox="0 0 1000 1000" width="1000" height="1000" id="src-svg-spread-sorting-" x="14000" xmlns="http://www.w3.org/2000/svg"><path d="M340.7 650.6V172.3h-148v478.3h-91.2L266 831.7l164.5-181.1z"/><path d="M608.7 599.8H402.8c-6.6 0-12-5.4-12-12v-77.5c0-6.6 5.4-12 12-12h205.9c6.6 0 12 5.4 12 12v77.5c0 6.6-5.4 12-12 12zM742.5 433.1H402.8c-6.6 0-12-5.4-12-12v-77.5c0-6.6 5.4-12 12-12h339.7c6.6 0 12 5.4 12 12v77.5c0 6.6-5.4 12-12 12zM886.5 269.8H402.8c-6.6 0-12-5.4-12-12v-77.5c0-6.6 5.4-12 12-12h483.7c6.6 0 12 5.4 12 12v77.5c0 6.6-5.4 12-12 12z"/></svg><view id="src-svg-spread-spread" viewBox="15000 0 1000 1000"/><svg viewBox="0 0 1000 1000" width="1000" height="1000" id="src-svg-spread-spread-" x="15000" xmlns="http://www.w3.org/2000/svg"><path fill="#EB5B25" d="M241.672 248.605c18.606-21.813 41.561-10.425 44.692-7.754 4.889 4.17 5.471 11.513 1.302 16.402-4.17 4.889-11.513 5.471-16.402 1.301-.064-.055-.12-.117-.183-.173l-.013.022c.064.052.133.097.196.15 4.889 4.17 5.471 11.513 1.302 16.402-4.17 4.889-11.513 5.471-16.402 1.301-.063-.054-.118-.114-.18-.169l-.061.047c.329.227.65.471.961.737 4.888 4.17 5.471 11.513 1.301 16.402-4.17 4.889-11.513 5.471-16.401 1.302-3.296-2.811-21.145-21.312-.112-45.97z"/><path fill="#FDC41F" d="M598.638 248.605c-18.606-21.813-41.561-10.425-44.692-7.754-4.889 4.17-5.471 11.513-1.302 16.402 4.17 4.889 11.513 5.471 16.402 1.301.064-.055.12-.117.183-.173l.013.022c-.064.052-.133.097-.196.15-4.889 4.17-5.471 11.513-1.302 16.402s11.513 5.471 16.402 1.301c.063-.054.118-.114.18-.169l.061.047c-.329.227-.65.471-.961.737-4.888 4.17-5.471 11.513-1.301 16.402s11.513 5.471 16.401 1.302c3.296-2.811 21.144-21.312.112-45.97z"/><path fill="none" d="M338.939 197.787c30.513 0 56.062-22.454 62.829-49.835H276.104c6.767 27.381 32.324 49.835 62.835 49.835zM501.051 198.202c30.513 0 56.062-22.454 62.829-49.835H438.216c6.767 27.381 32.323 49.835 62.835 49.835z"/><path fill="#FDC41F" d="M338.938 36.386c-51.449 0-93.156 41.706-93.156 93.152 0 51.449 41.706 93.154 93.156 93.154 34.67 0 64.895-18.955 80.935-47.055.025.045.053.089.078.134V83.582c-16.019-28.176-46.286-47.196-81.013-47.196zm.001 161.401c-30.512 0-56.068-22.454-62.835-49.835h125.664c-6.767 27.381-32.316 49.835-62.829 49.835z"/><path fill="#EB5B25" d="M501.049 36.802c-34.672 0-64.898 18.956-80.937 47.055-.052-.093-.108-.182-.16-.274v92.189c15.998 28.255 46.31 47.337 81.098 47.337 51.446 0 93.154-41.706 93.154-93.154-.001-51.448-41.709-93.153-93.155-93.153zm.002 161.4c-30.511 0-56.068-22.454-62.835-49.835H563.88c-6.767 27.381-32.316 49.835-62.829 49.835z"/><ellipse fill="#FCC600" cx="596.666" cy="326.47" rx="67.096" ry="14.172"/><path fill="#EB5B25" d="M596.666 385.102c-33.746 0-61.67-5.263-66.39-12.114h-.707v16.325c0 7.827 30.04 14.172 67.096 14.172s67.096-6.345 67.096-14.172v-16.325h-.707c-4.717 6.852-32.641 12.114-66.388 12.114zM596.666 352.933c-33.746 0-61.67-5.263-66.39-12.114h-.707v16.325c0 7.827 30.04 14.172 67.096 14.172s67.096-6.345 67.096-14.172v-16.325h-.707c-4.717 6.851-32.641 12.114-66.388 12.114z"/><path d="M519.365 330.613h.061c-.01-.253-.061-.483-.061-.742 0-16.904 22.12-21.576 30.447-23.334 8.056-1.702 17.641-2.936 28.026-3.67a21.67 21.67 0 0 1-3.3-3.123c-2.915-3.417-4.658-7.559-5.073-11.94a21.583 21.583 0 0 1-9.308-6.376 21.47 21.47 0 0 1-4.956-11.054 21.573 21.573 0 0 1-10.144-6.65c-7.732-9.064-6.647-22.729 2.417-30.46.096-.082.213-.169.317-.252-14.145 6.343-29.82 9.884-46.326 9.884-17.908 0-34.843-4.158-49.9-11.553-11.972 11.471-23.541 25.324-31.364 41.1v51.197c23.925 10.659 51.673 16.758 81.263 16.758 6.061 0 12.011-.342 17.901-.841v-8.944z"/><g><ellipse fill="#FCC600" cx="240.798" cy="326.47" rx="67.096" ry="14.172"/><path fill="#EB5B25" d="M240.798 385.102c-33.746 0-61.67-5.263-66.39-12.114h-.707v16.325c0 7.827 30.04 14.172 67.096 14.172s67.096-6.345 67.096-14.172v-16.325h-.707c-4.718 6.852-32.641 12.114-66.388 12.114zM240.798 352.933c-33.746 0-61.67-5.263-66.39-12.114h-.707v16.325c0 7.827 30.04 14.172 67.096 14.172s67.096-6.345 67.096-14.172v-16.325h-.707c-4.718 6.851-32.641 12.114-66.388 12.114z"/></g><path d="M388.836 231.343c-15.057 7.394-31.991 11.552-49.898 11.552-16.586 0-32.335-3.573-46.533-9.975.145.114.3.231.43.343 9.064 7.731 10.149 21.396 2.417 30.46a21.579 21.579 0 0 1-10.144 6.649 21.476 21.476 0 0 1-4.957 11.054 21.574 21.574 0 0 1-9.308 6.376c-.415 4.381-2.158 8.523-5.073 11.941a21.615 21.615 0 0 1-3.563 3.32c9.386.75 18.061 1.913 25.444 3.472 8.327 1.759 30.447 6.431 30.447 23.334 0 .259-.051.489-.061.742h.061v8.684c6.833.675 13.767 1.1 20.837 1.1 29.59 0 57.338-6.099 81.264-16.758V272.44c-7.822-15.773-19.391-29.625-31.363-41.097z"/></svg><view id="src-svg-spread-super-recruiter" viewBox="16000 0 1000 1000"/><svg width="1000" height="1000" viewBox="0 0 1000 1000" id="src-svg-spread-super-recruiter-" x="16000" xmlns="http://www.w3.org/2000/svg"><path fill="#73B72B" d="M413.46 853.831H182.814c92.184-226.21 230.646-281.29 230.646-281.29v281.29z"/><path fill="#020000" d="M535.2 97.023c-125.458 0-227.169 101.697-227.169 227.141 0 125.465 101.712 227.162 227.169 227.162 125.443 0 227.155-101.697 227.155-227.162 0-125.444-101.712-227.141-227.155-227.141m0 377.324c-66.449 0-122.108-42.449-136.84-94.214h273.673c-14.726 51.765-70.384 94.214-136.833 94.214"/><path fill="#020000" d="M535.2 97.023c-125.458 0-227.169 101.697-227.169 227.141 0 125.465 101.712 227.162 227.169 227.162 125.443 0 227.155-101.697 227.155-227.162 0-125.444-101.712-227.141-227.155-227.141m0 377.324c-66.449 0-122.108-42.449-136.84-94.214h273.673c-14.726 51.765-70.384 94.214-136.833 94.214M657.003 572.414c-24.091 14.606-78.149 28.167-121.818 28.167-43.648 0-97.713-13.561-121.804-28.167-57.146 42.695-124.512 153.943-124.512 240.11v88.453H781.53v-88.453c0-86.167-67.373-197.414-124.527-240.11z"/><path fill="#FFF" d="M634.1 306.698l-44.353 23.323 8.47-49.382-35.87-34.987 49.573-7.201 22.18-44.925 22.173 44.925 49.586 7.201-35.876 34.987 8.47 49.382z"/><path fill="#73B72B" d="M399.263 265.217h90.195v31.003h-90.195z"/></svg><view id="src-svg-spread-twitter" viewBox="17000 0 1000 1000"/><svg id="src-svg-spread-twitter-" viewBox="0 0 1000 1000" width="1000" height="1000" x="17000" xmlns="http://www.w3.org/2000/svg"><style>.rst0{fill:#36adce}</style><path class="rst0" d="M499 65.9c-239 0-432.8 193.8-432.8 432.8S260 931.6 499 931.6s432.8-193.8 432.8-432.8S738 65.9 499 65.9zM694.3 399v13.3c0 133.3-101 287.6-287.6 287.6-57.1 0-108.6-17.1-154.3-45.7 7.6 1.9 17.1 1.9 24.8 1.9 47.6 0 91.4-17.1 125.7-43.8-45.7-1.9-81.9-30.5-95.2-70.5 5.7 1.9 13.3 1.9 19 1.9 9.5 0 19-1.9 26.7-3.8-47.6-9.5-81.9-49.5-81.9-99V439c13.3 7.6 28.6 13.3 45.7 13.3-28.6-17.1-45.7-49.5-45.7-83.8 0-19 3.8-36.2 13.3-51.4C336.2 380 410.5 420 494.3 423.8c-1.9-7.6-1.9-15.2-1.9-22.9 0-55.2 45.7-101 101-101 28.6 0 55.2 13.3 74.3 32.4 22.9-3.8 45.7-13.3 64.8-24.8-7.6 22.9-22.9 41.9-43.8 55.2 21-1.9 40-7.6 59-15.2-15.3 21.1-32.5 38.2-53.4 51.5z"/></svg></svg>