<?xml version="1.0" encoding="utf-8"?><!-- Generator: Adobe Illustrator 21.0.2, SVG Export Plug-In . SVG Version: 6.00 Build 0)  --><svg version="1.1" id="Layer_1" xmlns="http://www.w3.org/2000/svg" xmlns:xlink="http://www.w3.org/1999/xlink" x="0px" y="0px"	 viewBox="0 0 640 60.6" style="enable-background:new 0 0 640 60.6;" xml:space="preserve"><style type="text/css">	.st0{fill:#0F0A0B;}</style><g>	<polygon class="st0" points="92.9,25.4 92.9,45 97.7,45 118.7,25.4 	"/>	<polygon class="st0" points="116,0 92.6,22.1 92.5,20.2 86,25.7 92.5,25.6 92.7,25.6 92.9,25.4 120.6,0 	"/>	<polygon class="st0" points="92.8,17.2 92.6,17.4 92.6,20.2 113.9,0 92.6,0 92.6,1.8 79.7,14.7 80.3,14.7 80.3,17 92.6,4.7 		92.6,7.8 80.2,20.2 80.2,22.3 80.6,22.7 92.5,10.8 92.5,13.9 82.6,24 84.1,25.5 92.8,16.8 	"/>	<polygon class="st0" points="126,26.3 105.7,45.1 109.3,45.1 129.7,26.3 	"/>	<polygon class="st0" points="145.8,20 145.7,25 139.6,25.1 118.2,45.1 161.5,45.1 176,31.7 176,20.7 187.9,20.7 204.6,5.3 204.6,0 		167.2,0 	"/>	<polygon class="st0" points="176,45.1 176,33.6 163.6,45.1 	"/>	<polygon class="st0" points="131.7,26.3 111.3,45.1 116.4,45.1 136.7,26.2 	"/>	<polygon class="st0" points="204.6,20.7 204.6,7.2 190,20.7 	"/>	<polygon class="st0" points="88.3,0 73.6,14.7 76.1,14.7 91.1,0 	"/>	<polygon class="st0" points="120.4,26.3 100.3,45 103.6,45 124,26.3 	"/>	<polygon class="st0" points="212.1,0 209.1,3 209,18.8 228.2,0 	"/>	<polygon class="st0" points="342.8,0 337.9,0 337.9,0.9 343.9,0.9 	"/>	<polygon class="st0" points="209.2,0 209.2,0.9 210,0 	"/>	<polygon class="st0" points="337.8,14.7 358.9,14.7 356.8,12.8 337.8,12.8 	"/>	<polygon class="st0" points="337.8,17.4 361.9,17.4 359.8,15.5 337.8,15.5 	"/>	<polygon class="st0" points="160.7,0 145.8,13.7 145.8,18.2 165.3,0 	"/>	<polygon class="st0" points="145.9,11.8 158.6,0 155,0 145.9,8.4 	"/>	<polygon class="st0" points="149.1,0.1 149.1,0 145.9,3 145.9,6.6 152.9,0.1 	"/>	<polygon class="st0" points="38,19.5 38,14.4 72.5,14.4 71.5,13.4 85.2,0 82.3,0 70,12.2 68.4,10.6 79.1,0 76.2,0 67,9.2 65.4,7.6 		73,0 70.1,0 63.9,6.2 62.5,4.8 67.3,0 2.2,0 0,2.2 0,51.1 0.3,51.4 34.4,51.4 31.9,49.1 38,49.3 38,44.5 26.7,44.2 21.3,39.2 		38,39.4 38,34.7 16.2,34.5 20.9,29.4 38.1,29.3 38.1,24.5 25.6,24.5 30.1,19.6 	"/>	<polygon class="st0" points="145.9,0 145.9,1.1 147.1,0 	"/>	<polygon class="st0" points="283.3,0 270.9,11.9 274.5,11.9 286.9,0 	"/>	<polygon class="st0" points="451.6,23.8 436.6,23.8 439.7,26.5 451.6,26.5 	"/>	<polygon class="st0" points="230.2,0 209,20.7 226,20.7 247.3,0 	"/>	<polygon class="st0" points="486,21.2 486,8.2 494.1,0 472.8,0 472.9,13.5 425.7,13.5 428.8,16.2 451.6,16.2 451.6,18.3 		431.2,18.3 434.3,21 451.6,21.2 	"/>	<polygon class="st0" points="452,4 414.6,4 417.7,6.7 452,6.7 	"/>	<polygon class="st0" points="452,9.2 420.2,9.2 423.3,11.9 452,11.9 	"/>	<polygon class="st0" points="640,0 618.3,0 583.5,34.5 583.5,60.6 640,60.6 	"/>	<polygon class="st0" points="451.6,36.7 451.6,33.2 448.4,33.2 	"/>	<polygon class="st0" points="597.6,0 567,0 531.6,36.7 549.2,36.7 549.2,50.2 	"/>	<polygon class="st0" points="450.3,0 409.6,0 410.7,1.1 451.5,1.1 	"/>	<polygon class="st0" points="518.8,0 485.7,33.3 485.7,33.2 451.7,33.2 451.7,36.8 505.4,36.8 542.8,0 	"/>	<polygon class="st0" points="451.7,28.7 442.2,28.7 446.2,31.7 451.7,31.7 	"/>	<polygon class="st0" points="302.2,0 289.8,11.9 293.4,11.9 305.8,0 	"/>	<polygon class="st0" points="273.9,0 261.5,11.9 265.1,11.9 277.5,0 	"/>	<polygon class="st0" points="292.7,0 280.3,11.9 283.9,11.9 296.3,0 	"/>	<polygon class="st0" points="249.2,0 228,20.7 247,20.7 268.6,0 	"/>	<polygon class="st0" points="330.3,0 318.2,11.9 321.8,11.9 334.1,0 	"/>	<polygon class="st0" points="337.8,11.9 355.8,11.9 353.7,10 337.8,10 337.8,9.2 352.7,9.2 350.6,7.3 337.7,7.3 337.7,6.5 		349.7,6.5 347.6,4.6 337.7,4.6 337.7,3.8 346.7,3.8 344.6,1.9 337.7,1.9 328.2,11.8 337.7,11.8 337.7,11.9 	"/>	<polygon class="st0" points="337.8,18.3 337.8,20.2 364.9,20.2 362.8,18.3 	"/>	<polygon class="st0" points="321.1,0 308.7,11.9 312.3,11.9 324.6,0 	"/>	<polygon class="st0" points="311.6,0 299.2,11.9 302.8,11.9 315.2,0 	"/></g></svg>