<svg id="_x33_G" xmlns="http://www.w3.org/2000/svg" viewBox="0 0 150 150"><style>.st0{fill:#fff}</style><path class="st0" d="M135.2 44.8V46h13v13h1.2V44.8zM149.4 105.3h-14.2v-1.2h13v-13h1.2zM18.4 44.7l-5.2 12.6 17.7-7.4zM.7 62.4L5.9 75l7.3-17.7zM.6 87.5l12.6 5.2L5.9 75zM18.3 105.2l-5.1-12.5 17.7 7.3zM43.4 44.7l-12.5 5.2 17.7 7.4zM61.2 62.4l-12.6-5.1L55.9 75zM61.2 87.5L55.9 75l-7.3 17.7zM43.5 105.2l5.1-12.5-17.7 7.3zM23.4 76.6c.2 7 6 12.6 13 12.6 2.1 0 4.1-.5 5.8-1.4-3 3-7.1 4.9-11.7 4.9-9.1 0-16.5-7.4-16.5-16.5V62.1h9.4v14.5zm19-18.2l-6.5 7.1h1.8v10.6c0 4-3.2 7.2-7.2 7.2-.8 0-1.6-.1-2.4-.4 2 2.4 4.9 3.9 8.2 3.9 5.7 0 10.3-4.5 10.6-10.1V65.6h1.9l-6.4-7.2z"/><g><path class="st0" d="M74.2 73.8v-6.5h.8l3.1 4.9c.2.2.2.4.3.5v-5.4h.7v6.5h-.8l-3.1-4.9c-.2-.2-.2-.4-.3-.5v5.4h-.7zM81.2 73.8v-6.5h4.1v.7H82v2.1h3v.7h-3v2.3h3.3v.7h-4.1zM86.5 68v-.7h4.8v.7h-2v5.8h-.8V68h-2zM94.1 73.8l-1.8-6.5h.8l1.3 4.9c.1.3.1.5.2.7l.2-.7 1.3-4.9h.8l1.3 4.9c.1.3.1.5.2.7l.2-.7 1.3-4.9h.8l-1.8 6.5h-.8l-1.5-5.5-1.5 5.5h-1zM107.7 70.6c0 1-.3 1.8-.9 2.4s-1.4.9-2.2.9c-.9 0-1.6-.3-2.2-.9s-.9-1.4-.9-2.4.3-1.8.9-2.4 1.3-.9 2.2-.9c.9 0 1.6.3 2.2.9s.9 1.4.9 2.4zm-4.9 1.9c.4.5 1 .7 1.7.7s1.2-.2 1.7-.7c.4-.5.7-1.1.7-1.9s-.2-1.4-.7-1.9c-.4-.5-1-.7-1.7-.7s-1.2.2-1.7.7c-.4.5-.7 1.1-.7 1.9s.3 1.4.7 1.9zM113.3 73.8l-1.6-2.8h-1.5v2.8h-.8v-6.5h2.6c.6 0 1.1.2 1.5.5s.6.8.6 1.3-.1.8-.4 1.2c-.3.3-.7.5-1.2.6l1.6 2.9h-.8zm-3.1-5.8v2.3h1.7c.5 0 .8-.1 1.1-.3.3-.2.4-.5.4-.9s-.1-.7-.4-.9c-.3-.2-.6-.3-1.1-.3h-1.7v.1zM115.8 73.8v-6.5h.8v3l.5-.6 2.2-2.4h1l-2.3 2.4 2.5 4.1h-.9l-2.1-3.5-.9 1v2.5h-.8zM80.2 80c0 1-.3 1.8-.9 2.4s-1.4.9-2.2.9c-.9 0-1.6-.3-2.2-.9S74 81 74 80s.3-1.8.9-2.4 1.3-.9 2.2-.9c.9 0 1.6.3 2.2.9.5.6.9 1.4.9 2.4zm-4.9 1.9c.4.5 1 .7 1.7.7s1.2-.2 1.7-.7c.4-.5.7-1.1.7-1.9s-.2-1.4-.7-1.9c-.4-.5-1-.7-1.7-.7s-1.2.2-1.7.7c-.4.5-.7 1.1-.7 1.9s.3 1.4.7 1.9zM81.9 83.2v-6.5h4.2v.7h-3.4v2.3h3.1v.7h-3.1v2.8h-.8zM89 77.4v-.7h4.8v.7h-2v5.8H91v-5.8h-2zM95.2 83.2v-6.5h.8v2.9h3.2v-2.9h.8v6.5h-.8v-3H96v3h-.8zM102 83.2v-6.5h4.1v.7h-3.3v2.1h3v.7h-3v2.3h3.3v.7H102zM111.2 83.2v-2.7l-2.1-3.8h.8l1.5 2.8c.1.2.2.3.2.5l.2-.5 1.5-2.8h.8l-2.1 3.8v2.7h-.8zM115.4 83.2v-6.5h4.1v.7h-3.3v2.1h3v.7h-3v2.3h3.3v.7h-4.1zM120.7 83.2l2.6-6.5h.8l2.6 6.5h-.8l-.8-1.9h-2.9l-.8 1.9h-.7zm2.8-5.1l-1 2.5h2.4l-1-2.5c-.1-.2-.1-.4-.2-.5l-.2.5zM131.8 83.2l-1.6-2.8h-1.5v2.8h-.7v-6.5h2.6c.6 0 1.1.2 1.5.5s.6.8.6 1.3-.1.8-.4 1.2c-.3.3-.7.5-1.2.6l1.6 2.9h-.9zm-3-5.8v2.3h1.7c.5 0 .8-.1 1.1-.3.3-.2.4-.5.4-.9s-.1-.7-.4-.9c-.3-.2-.6-.3-1.1-.3h-1.7v.1zM75.2 92.7l-1.8-6.5h1.3l1 4.1c.1.3.1.6.2.7l.2-.7 1.1-4.1h1.3l1.1 4.1c.1.3.1.6.2.7l.2-.7 1-4.1h1l-1.8 6.5h-1.3L77.7 88l-1.2 4.7h-1.3zM83.1 92.7v-6.5h1.2v6.5h-1.2zM86.1 92.7v-6.5h1.2l2.7 4.1c.2.2.2.4.3.5v-4.6h1.2v6.5h-1.2l-2.7-4.2c-.2-.2-.2-.4-.3-.5v4.7h-1.2zM93.2 92.7v-6.5h1.2l2.7 4.1c.2.2.2.4.3.5v-4.6h1.2v6.5h-1.2l-2.7-4.2c-.2-.2-.2-.4-.3-.5v4.7h-1.2zM100.4 92.7v-6.5h4.5v1.1h-3.3v1.5h3v1.1h-3v1.7h3.3v1.1h-4.5zM110.2 92.7l-1.5-2.6h-1v2.6h-1.2v-6.5h2.8c.7 0 1.3.2 1.7.5.4.3.6.8.6 1.3 0 .9-.5 1.6-1.5 1.9l1.6 2.8h-1.5zm-2.5-5.5v1.7h1.6c.7 0 1.1-.3 1.1-.9s-.4-.9-1.1-.9h-1.6v.1zM114.5 91.8l2.5-2.4c.3-.3.5-.5.6-.7s.2-.4.2-.6c0-.3-.1-.5-.3-.7-.2-.2-.4-.3-.7-.3-.3 0-.5.1-.7.2s-.3.4-.3.7c0 .1 0 .3.1.4l-1.2.2c-.1-.2-.1-.5-.1-.7 0-.5.2-1 .6-1.4s1-.6 1.6-.6c.7 0 1.2.2 1.6.5s.6.8.6 1.3c0 .4-.1.8-.3 1.1-.2.3-.5.7-.9 1.1l-1.5 1.4h2.6v1.1h-4.4v-.6zM125 87c.5.6.8 1.4.8 2.5 0 1-.3 1.8-.8 2.4s-1.3.9-2.1.9c-.9 0-1.6-.3-2.1-.9-.6-.6-.8-1.4-.8-2.4s.3-1.8.8-2.5c.5-.6 1.3-.9 2.1-.9.8-.1 1.5.2 2.1.9zm-3.4 4.1c.3.4.7.6 1.2.6s.9-.2 1.2-.6c.3-.4.5-.9.5-1.6s-.2-1.2-.5-1.6-.7-.6-1.2-.6-.9.2-1.2.6c-.3.4-.5 1-.5 1.6.1.6.2 1.2.5 1.6zM126.7 88.1V87c.4 0 .7-.1.9-.2.2-.1.4-.3.6-.6h1.2v6.5H128v-5c-.2.2-.4.3-.6.3-.2.1-.4.1-.7.1zM134.7 92.3c-.4.4-1 .5-1.7.5s-1.3-.2-1.7-.5c-.4-.4-.6-.8-.6-1.4 0-.4.1-.7.3-1s.5-.5.8-.7c-.6-.3-.9-.8-.9-1.4 0-.5.2-.9.6-1.2.4-.3.9-.5 1.5-.5s1.2.2 1.5.5c.4.3.6.7.6 1.2 0 .6-.3 1.1-.9 1.4.4.1.6.4.8.7.2.3.3.6.3 1 .1.5-.1 1-.6 1.4zm-2.5-.8c.2.2.5.3.8.3s.6-.1.8-.3c.2-.2.3-.4.3-.7s-.1-.6-.3-.7c-.2-.2-.5-.3-.8-.3s-.6.1-.8.3c-.2.2-.3.4-.3.7s.1.5.3.7zm-.1-3.7c0 .3.1.5.3.7s.4.2.7.2.5-.1.7-.2c.2-.2.3-.4.3-.7 0-.3-.1-.5-.3-.6-.2-.2-.4-.2-.7-.2s-.5.1-.7.2c-.2.1-.3.3-.3.6z"/></g><path class="st0" d="M81.9 58.5c0 .3.1.5.4.7s.8.3 1.4.5c.9.2 1.5.5 1.9.8.4.4.6.9.6 1.5 0 .7-.3 1.2-.8 1.7s-1.2.7-2.1.7-1.6-.2-2.2-.7c-.5-.4-.9-1-1-1.8l1.3-.6c.2 1.2.9 1.8 1.9 1.8.4 0 .8-.1 1-.3.3-.2.4-.4.4-.8 0-.3-.2-.6-.5-.8s-.8-.3-1.4-.5c-.7-.2-1.3-.4-1.8-.8-.4-.4-.6-.9-.6-1.5s.2-1.1.7-1.5 1.1-.6 2-.6c1.5 0 2.4.7 2.9 2l-1 .7c-.3-.9-.9-1.4-1.8-1.4-.4 0-.7.1-.9.2s-.4.4-.4.7zm9.4.3l1 3.6.9-3.6h1.3L93 64.2h-1.3l-1-3.7-1 3.7h-1.3l-1.5-5.4h1.3l.9 3.6 1-3.6h1.2zm4 5.4v-5.4h1.4v5.4h-1.4zm2.4-4.3v-1.1h.8v-1.5h1.4v1.5h1.2v1.1h-1.2v2.5c0 .5.2.8.7.8.2 0 .3 0 .5-.1l.1 1.1c-.3.1-.6.2-.9.2-1.2 0-1.7-.6-1.7-1.7V60l-.9-.1zm8.3 2.2l1.1.7c-.5 1-1.4 1.6-2.6 1.6-.8 0-1.5-.3-2-.8s-.8-1.2-.8-2.1c0-.9.3-1.5.8-2.1.6-.5 1.2-.8 2-.8.6 0 1.1.1 1.6.4.4.3.8.6.9 1.1l-1.1.8c-.3-.6-.7-.9-1.4-.9-.4 0-.8.1-1 .4-.3.3-.4.7-.4 1.1 0 .5.1.9.4 1.2s.6.4 1 .4.6-.1.9-.3c.3-.1.5-.4.6-.7zm7.2-1.6v3.7h-1.4v-3.1c0-.4-.1-.6-.3-.9-.2-.2-.5-.3-.8-.3-.4 0-.7.1-1 .4-.3.3-.4.7-.4 1.1v2.8H108v-7.7h1.4v3.1c.4-.7 1.1-1 1.9-1 .6 0 1.1.2 1.4.5.3.4.5.9.5 1.4zM96 56.4c-.4 0-.8.4-.8.8s.4.8.8.8.8-.4.8-.8-.4-.8-.8-.8zm-21.8 5.8v-3.4h1.4v3.1c0 .8.4 1.2 1.1 1.2.4 0 .7-.1.9-.4.2-.3.3-.6.3-1.1v-2.8h1.4v5.4h-1.4v-.8c-.4.7-1 .9-1.7.9-.5 0-1.1-.2-1.4-.6-.4-.3-.6-.9-.6-1.5z"/></svg>